<svg xmlns="http://www.w3.org/2000/svg" width="248.483" height="58.15" viewBox="0 0 248.483 58.15">
    <defs>
        <style>
            .cls-1{fill:#3bad4c}.cls-2{fill:#888a8b}
        </style>
    </defs>
    <g id="Grupo_211" data-name="Grupo 211" transform="translate(-165.682 -21.577)">
        <path id="Trazado_9" d="M251.942 55.554a1.593 1.593 0 0 0 1.412.737 1.855 1.855 0 0 0 1.417-.827L269.1 37.1a1.67 1.67 0 0 1 2.35-.237 1.706 1.706 0 0 1 .288 2.266l-3.2 4.1v.022a1.571 1.571 0 0 0-.067 2.118v.007l3.224 4.086 10.152-12.912-4.058-5.174-.75-.975a3.555 3.555 0 0 0-2.13-1.167h-6.081a3.322 3.322 0 0 0-2.491 1.116L249.3 52.207z" class="cls-1" data-name="Trazado 9" transform="translate(-3.41 .468)"/>
        <path id="Trazado_10" d="M251.221 44.35l-4.075-5.225a1.661 1.661 0 1 1 2.784-1.809l3.37 4.329 3.991-5.14-4.6-5.918a3.079 3.079 0 0 0-2.773-1.353h-5.5a3.068 3.068 0 0 0-2.514 1.093l-4.858 6.166 10.156 12.974z" class="cls-1" data-name="Trazado 10" transform="translate(-3.41 .468)"/>
        <path id="Trazado_11" d="M266.924 48.8a1.689 1.689 0 0 0-1.372-.712 1.57 1.57 0 0 0-1.321.64l-14.476 18.59a1.735 1.735 0 0 1-2.435.253 1.671 1.671 0 0 1-.2-2.281l3.246-4.17v-.02a1.573 1.573 0 0 0 .066-2.118v-.008l-3.224-4.086-10.19 13.064 5.681 7.191 8.927.023L269.583 52.2z" class="cls-1" data-name="Trazado 11" transform="translate(-3.41 .468)"/>
        <path id="Trazado_12" d="M267.672 60.007l4.109 5.287a1.636 1.636 0 0 1-.248 2.281 1.738 1.738 0 0 1-2.542-.523l-3.438-4.367-3.99 5.14 5.754 7.365 8.86-.022 5.681-7.282-10.179-13z" class="cls-1" data-name="Trazado 12" transform="translate(-3.41 .468)"/>
        <path id="Trazado_13" d="M281.783 48.162a4.067 4.067 0 1 0 4.12 4.066 4.1 4.1 0 0 0-4.12-4.066zm0 6.253a2.187 2.187 0 1 1 2.166-2.187 2.179 2.179 0 0 1-2.166 2.187z" class="cls-1" data-name="Trazado 13" transform="translate(-3.41 .468)"/>
        <path id="Trazado_14" d="M259.424 29.242a4.067 4.067 0 1 0-4.12-4.067 4.1 4.1 0 0 0 4.12 4.067zm0-6.254a2.187 2.187 0 1 1-2.166 2.187 2.179 2.179 0 0 1 2.166-2.187z" class="cls-1" data-name="Trazado 14" transform="translate(-3.41 .468)"/>
        <path id="Trazado_15" d="M241.127 52.213a4.12 4.12 0 1 0-4.12 4.066 4.1 4.1 0 0 0 4.12-4.066zm-6.287 0a2.167 2.167 0 1 1 2.167 2.187 2.179 2.179 0 0 1-2.167-2.187z" class="cls-1" data-name="Trazado 15" transform="translate(-3.41 .468)"/>
        <path id="Trazado_17" d="M215.272 26.3v30.413a16.451 16.451 0 0 1-3.445 10.113 26.357 26.357 0 0 1-7.766 6.635 45.3 45.3 0 0 1-11.3 4.616 45.173 45.173 0 0 1-11.261-4.588 26.445 26.445 0 0 1-7.8-6.64 16.459 16.459 0 0 1-3.462-10.136V26.3h45.028m1.152-1.152h-47.326v31.565c0 17.325 23.655 22.546 23.655 22.546h.022s23.655-5.221 23.655-22.546V25.15z" class="cls-2" data-name="Trazado 17" transform="translate(-3.41 .468)"/>
        <g id="Grupo_11" data-name="Grupo 11" transform="translate(-3.41 .468)">
            <path id="Trazado_18" d="M198.49 35.253v-2.9h-2.981v2.706h-1.164v-2.704h-3.072v2.706h-1.164v-2.706h-3.03v2.9l1.479 2.542a.583.583 0 0 1 .078.292l.012 13.274h1.434l-.015-4.768a2.751 2.751 0 0 1 5.368 0l.014 4.77h1.471v-5.033a.564.564 0 0 1-.005-.071v-2.497V38.09a.587.587 0 0 1 .081-.3z" class="cls-2" data-name="Trazado 18"/>
            <path id="Trazado_19" d="M187.484 51.672v-4.4l-.529.318a.582.582 0 0 1-.629-.019l-.639-.437a.526.526 0 0 1 0 .056l-.023 1.695a.58.58 0 0 1-.223.45.568.568 0 0 1 .184.1 2.115 2.115 0 0 1 .667 2.235z" class="cls-2" data-name="Trazado 19"/>
            <path id="Trazado_20" d="M192.751 45.613c-.893 0-1.52.636-1.52.98l.015 4.77h3.039l-.015-4.763c0-.351-.626-.987-1.519-.987z" class="cls-2" data-name="Trazado 20"/>
            <path id="Trazado_21" d="M175.008 51.672a5.336 5.336 0 0 1-.373-1.338 10.355 10.355 0 0 1-.115-1.8.582.582 0 0 1 .41-.534l1.273-.393-1.437-1.017a.58.58 0 0 1-.246-.476V44.5a.58.58 0 0 1 .313-.516l.561-.292v-.549l-.511-.207a.582.582 0 0 1-.364-.539v-1.939a.583.583 0 0 1 .577-.583l1.8-.016a6.439 6.439 0 0 1 .074-1.664 7.363 7.363 0 0 1 .768-1.868l-.1-.673a.582.582 0 0 1 .576-.664h.969a.586.586 0 0 1 .312.09l2.367 1.5h1.088a.583.583 0 0 1 .582.608l-.082 1.865a.583.583 0 0 1-.189.405h.723a.582.582 0 0 1 .418.178l.331.343.249-.191.421-.886a.582.582 0 0 1 .526-.332h1.545v-.329l-1.479-2.542a.59.59 0 0 1-.079-.293v-3.633a.583.583 0 0 1 .583-.583h12.576a.583.583 0 0 1 .582.583v3.639a.58.58 0 0 1-.081.3l-1.5 2.54v.328h1.533a.581.581 0 0 1 .525.332l.421.886.25.191.331-.343a.581.581 0 0 1 .417-.178h.724a.582.582 0 0 1-.189-.405L202 37.192a.581.581 0 0 1 .581-.608h1.089l2.367-1.5a.581.581 0 0 1 .312-.09h.968a.582.582 0 0 1 .577.664l-.1.673a7.4 7.4 0 0 1 .767 1.868 6.394 6.394 0 0 1 .074 1.664l1.8.016a.583.583 0 0 1 .577.583v1.939a.582.582 0 0 1-.363.539l-.511.207v.549l.561.292a.582.582 0 0 1 .313.516v1.612a.583.583 0 0 1-.246.476l-1.437 1.017L210.6 48a.583.583 0 0 1 .41.534 10.354 10.354 0 0 1-.115 1.8 5.378 5.378 0 0 1-.373 1.338h2.118a.231.231 0 0 1 .026 0v-22.5H172.9v22.5z" class="cls-2" data-name="Trazado 21"/>
            <path id="Trazado_22" d="M199.908 49.437a.59.59 0 0 1 .184-.1.582.582 0 0 1-.222-.45l-.023-1.695v-.056l-.638.437a.583.583 0 0 1-.629.019l-.5-.3v4.381h1.157a2.117 2.117 0 0 1 .671-2.236z" class="cls-2" data-name="Trazado 22"/>
            <path id="Trazado_23" d="M207.639 63.7a.582.582 0 0 1-.582-.582v-3.8a1.367 1.367 0 0 0-.435-.893 1.606 1.606 0 0 0-1.195-.467 1.528 1.528 0 0 0-1.5 1.389v3.773a.582.582 0 0 1-.582.582h-3.46a.583.583 0 0 1-.582-.582v-3.8a1.37 1.37 0 0 0-.434-.893 1.614 1.614 0 0 0-1.2-.467 1.5 1.5 0 0 0-1.011.4l2.842 14.504c4-1.774 8.744-4.668 11.3-9.162z" class="cls-2" data-name="Trazado 23"/>
            <path id="Trazado_24" d="M198.389 73.225l-4-20.388h-3.245l-3.993 20.4a.773.773 0 0 1-.024.082 53.631 53.631 0 0 0 5.657 1.916 54.19 54.19 0 0 0 5.633-1.905.471.471 0 0 1-.028-.105z" class="cls-2" data-name="Trazado 24"/>
            <path id="Trazado_25" d="M188.881 58.339a1.5 1.5 0 0 0-.988-.381h-.032a1.622 1.622 0 0 0-1.164.466 1.375 1.375 0 0 0-.434.893v3.805a.583.583 0 0 1-.582.582h-3.46a.582.582 0 0 1-.582-.582v-3.775a1.527 1.527 0 0 0-1.5-1.389h-.039a1.618 1.618 0 0 0-1.164.466 1.372 1.372 0 0 0-.435.893v3.805a.582.582 0 0 1-.582.582h-3.157c2.555 4.479 7.278 7.37 11.273 9.146z" class="cls-2" data-name="Trazado 25"/>
            <path id="Trazado_26" d="M212.643 52.837h-17.066l.838 4.275a2.694 2.694 0 0 1 1.236-.32 2.806 2.806 0 0 1 2.031.8 2.506 2.506 0 0 1 .782 1.723v3.222h2.3v-3.221a.488.488 0 0 1 0-.054 2.707 2.707 0 0 1 2.646-2.47 2.791 2.791 0 0 1 2.031.8 2.506 2.506 0 0 1 .782 1.723v3.222h3.18a14.116 14.116 0 0 0 1.268-5.923v-3.78c-.011 0-.019.003-.028.003z" class="cls-2" data-name="Trazado 26"/>
            <path id="Trazado_27" d="M177.342 62.539v-3.222a2.506 2.506 0 0 1 .782-1.723 2.819 2.819 0 0 1 2.031-.8 2.707 2.707 0 0 1 2.646 2.47v3.276h2.3v-3.223a2.508 2.508 0 0 1 .783-1.723 2.82 2.82 0 0 1 2.031-.8 2.7 2.7 0 0 1 1.211.307l.835-4.264H172.9v3.778a14.1 14.1 0 0 0 1.271 5.925z" class="cls-2" data-name="Trazado 27"/>
            <path id="Trazado_28" d="M178.711 50.473h.944a1.025 1.025 0 0 1 .133.392c0 .078.007.156.014.236a2.514 2.514 0 0 1-.079.571h-3.306c-.477-.325-.716-1.619-.736-2.684l1.447-.447a.584.584 0 0 0 .41-.556v-.558a.582.582 0 0 0-.246-.475l-1.608-1.138v-.957l.561-.293a.58.58 0 0 0 .313-.516v-1.294a.582.582 0 0 0-.363-.54l-.511-.207v-.969l1.527-.014.725 1.188v1.657l-.5 1.572a.583.583 0 0 0 .554.759h.441a.582.582 0 0 0 .574-.489 9.31 9.31 0 0 1 .311-1.336 6.05 6.05 0 0 1 .777-1.131.582.582 0 0 0-.007-.756l-2-2.3a6.242 6.242 0 0 1 .014-1.747 6.606 6.606 0 0 1 .73-1.691.58.58 0 0 0 .08-.386l-.03-.209h.129l2.368 1.5a.581.581 0 0 0 .311.09h.649l-.038.869-.763.277a.583.583 0 0 0-.384.551v.6a.582.582 0 0 0 .581.579l1.993.006.52.539a.581.581 0 0 0 .773.059s.906-.722.946-.805l.323-.681h1.162v2.119s-2.124.728-2.3.816c-.139.068-.216.726-.191.884s.015.222.245.392a6.244 6.244 0 0 0 .807.554l.618-.59.818.054v1.963l-.781.469-2.436-1.67a.582.582 0 0 0-.788.122l-.382.489a.582.582 0 0 0 .061.784l1.4 1.309-.021 1.066-1.4.623a.582.582 0 0 0-.346.532v.238a.582.582 0 0 0 .583.582h1.686a1.244 1.244 0 0 1 .054 1.2h-3.886a1.13 1.13 0 0 1-.228-.656c0-.075-.006-.15-.014-.225a4.344 4.344 0 0 1 .087-.971l.9-1.158a.584.584 0 0 0 .123-.33l.026-.556a.582.582 0 0 0-.8-.567l-1.46.6a.584.584 0 0 0-.356.455l-.086.582-.847.256a.582.582 0 0 0-.414.557v.236a.582.582 0 0 0 .589.575z" class="cls-2" data-name="Trazado 28"/>
            <path id="Trazado_29" d="M206.822 50.473h-.944a1.025 1.025 0 0 0-.133.392c0 .078-.007.156-.014.236a2.514 2.514 0 0 0 .079.571h3.306c.477-.325.716-1.619.736-2.684l-1.447-.447a.582.582 0 0 1-.41-.556v-.558a.582.582 0 0 1 .246-.475l1.608-1.138v-.957l-.561-.293a.58.58 0 0 1-.313-.516v-1.294a.582.582 0 0 1 .363-.54l.511-.207v-.969l-1.527-.014-.725 1.188-.005 1.657.5 1.572a.583.583 0 0 1-.555.759h-.44a.583.583 0 0 1-.575-.489 9.168 9.168 0 0 0-.31-1.336 6.1 6.1 0 0 0-.777-1.131.582.582 0 0 1 .007-.756l2-2.3a6.242 6.242 0 0 0-.014-1.747 6.606 6.606 0 0 0-.73-1.691.58.58 0 0 1-.08-.386l.029-.209h-.128l-2.368 1.5a.581.581 0 0 1-.311.09h-.649l.038.869.763.277a.583.583 0 0 1 .384.551v.6a.582.582 0 0 1-.581.579l-1.993.006-.52.539a.581.581 0 0 1-.773.059s-.907-.722-.946-.805l-.323-.681h-1.162v2.119s2.124.728 2.3.816c.139.068.216.726.191.884s-.015.222-.245.392a6.2 6.2 0 0 1-.808.554l-.617-.59-.818.054v1.963l.781.469 2.438-1.67a.582.582 0 0 1 .788.122l.382.489a.583.583 0 0 1-.061.784l-1.4 1.309.014 1.064 1.4.623a.582.582 0 0 1 .346.532v.238a.582.582 0 0 1-.583.582H200.5a1.244 1.244 0 0 0-.054 1.2h3.886a1.129 1.129 0 0 0 .228-.656c0-.075.006-.15.014-.225a4.344 4.344 0 0 0-.087-.971l-.9-1.158a.584.584 0 0 1-.123-.33l-.026-.556a.582.582 0 0 1 .8-.567l1.46.6a.584.584 0 0 1 .356.455l.086.582.847.256a.582.582 0 0 1 .414.557v.236a.582.582 0 0 1-.579.577z" class="cls-2" data-name="Trazado 29"/>
        </g>
        <g id="Grupo_15" data-name="Grupo 15" transform="translate(-3.41 .468)">
            <g id="Grupo_14" data-name="Grupo 14">
                <g id="Grupo_13" data-name="Grupo 13">
                    <path id="Trazado_30" d="M298.363 45.313v-.023a4.047 4.047 0 0 1 4.044-4.171 4.249 4.249 0 0 1 3.007 1.072l-.587.691a3.436 3.436 0 0 0-2.455-.922 3.15 3.15 0 0 0-3.064 3.307v.023a3.116 3.116 0 0 0 3.191 3.353 3.8 3.8 0 0 0 2.328-.807v-2h-2.455v-.818h3.33v3.215a4.888 4.888 0 0 1-3.237 1.233 3.955 3.955 0 0 1-4.102-4.153z" class="cls-2" data-name="Trazado 30"/>
                    <path id="Trazado_31" d="M308.683 45.313v-.023a4.114 4.114 0 1 1 8.227-.023v.023a4.114 4.114 0 1 1-8.227.023zm7.283 0v-.023a3.207 3.207 0 0 0-3.18-3.33 3.168 3.168 0 0 0-3.157 3.307v.023a3.206 3.206 0 0 0 3.179 3.33 3.169 3.169 0 0 0 3.158-3.307z" class="cls-2" data-name="Trazado 31"/>
                    <path id="Trazado_32" d="M320.17 41.257h3.43a2.961 2.961 0 0 1 2.108.715 1.785 1.785 0 0 1 .519 1.29v.023a1.948 1.948 0 0 1-1.278 1.867c.956.288 1.727.841 1.727 1.947v.023c0 1.382-1.163 2.2-2.926 2.2h-3.58zm5.139 2.132c0-.795-.635-1.314-1.786-1.314h-2.455v2.777h2.385c1.1 0 1.856-.5 1.856-1.44zm-1.694 2.27h-2.547V48.5h2.708c1.221 0 1.982-.541 1.982-1.439v-.024c0-.871-.737-1.378-2.143-1.378z" class="cls-2" data-name="Trazado 32"/>
                    <path id="Trazado_33" d="M329.933 41.257h.911v8.066h-.911z" class="cls-2" data-name="Trazado 33"/>
                    <path id="Trazado_34" d="M334.528 41.257h5.829v.83h-4.919v2.754h4.4v.83h-4.4v2.822h4.978v.83h-5.888z" class="cls-2" data-name="Trazado 34"/>
                    <path id="Trazado_35" d="M343.435 41.257h3.465a3.178 3.178 0 0 1 2.293.807 2.225 2.225 0 0 1 .623 1.59v.023a2.362 2.362 0 0 1-2.189 2.351l2.477 3.3h-1.118l-2.339-3.135h-2.3v3.135h-.91zm3.387 4.114c1.21 0 2.074-.623 2.074-1.66v-.023c0-.99-.76-1.59-2.063-1.59h-2.488v3.273z" class="cls-2" data-name="Trazado 35"/>
                    <path id="Trazado_36" d="M353.1 41.257h.853l5.081 6.464v-6.464h.887v8.066h-.726l-5.208-6.614v6.614h-.887z" class="cls-2" data-name="Trazado 36"/>
                    <path id="Trazado_37" d="M363.176 45.313v-.023a4.114 4.114 0 1 1 8.227-.023v.023a4.114 4.114 0 1 1-8.227.023zm7.283 0v-.023a3.207 3.207 0 0 0-3.181-3.33 3.168 3.168 0 0 0-3.156 3.307v.023a3.206 3.206 0 0 0 3.179 3.33 3.17 3.17 0 0 0 3.158-3.307z" class="cls-2" data-name="Trazado 37"/>
                    <path id="Trazado_38" d="M378.859 41.257h2.8a4.021 4.021 0 0 1 4.286 4.01v.023a4.038 4.038 0 0 1-4.286 4.033h-2.8zm.909.841v6.383h1.89A3.121 3.121 0 0 0 385 45.313v-.023a3.14 3.14 0 0 0-3.341-3.192z" class="cls-2" data-name="Trazado 38"/>
                    <path id="Trazado_39" d="M388.836 41.257h5.829v.83h-4.92v2.754h4.4v.83h-4.4v2.822h4.978v.83h-5.887z" class="cls-2" data-name="Trazado 39"/>
                    <path id="Trazado_40" d="M401.971 41.257h.91v7.224h4.54v.842h-5.45z" class="cls-2" data-name="Trazado 40"/>
                    <path id="Trazado_41" d="M413.009 41.2h.852l3.676 8.123h-.98l-.944-2.132h-4.39l-.957 2.132h-.933zm2.247 5.161l-1.833-4.1-1.843 4.1z" class="cls-2" data-name="Trazado 41"/>
                    <path id="Trazado_42" d="M298.19 59.14v-.023a4.1 4.1 0 0 1 4.206-4.171 4.164 4.164 0 0 1 3.18 1.244l-1.13 1.3a2.975 2.975 0 0 0-2.062-.911 2.39 2.39 0 0 0-2.339 2.512v.023a2.4 2.4 0 0 0 2.339 2.534 2.913 2.913 0 0 0 2.12-.944l1.129 1.141a4.123 4.123 0 0 1-3.306 1.44 4.071 4.071 0 0 1-4.137-4.145z" class="cls-2" data-name="Trazado 42"/>
                    <path id="Trazado_43" d="M307.1 55.084h1.774v8.066H307.1z" class="cls-2" data-name="Trazado 43"/>
                    <path id="Trazado_44" d="M310.919 59.693v-4.609h1.774v4.563c0 1.314.657 1.993 1.74 1.993s1.739-.657 1.739-1.935v-4.621h1.774v4.552c0 2.442-1.37 3.64-3.537 3.64s-3.49-1.209-3.49-3.583z" class="cls-2" data-name="Trazado 44"/>
                    <path id="Trazado_45" d="M319.965 55.084h3.145a4.02 4.02 0 0 1 4.286 4.01v.023a4.038 4.038 0 0 1-4.286 4.033h-3.145zm3.145 6.464a2.3 2.3 0 0 0 2.431-2.408v-.023a2.316 2.316 0 0 0-2.431-2.431h-1.371v4.862z" class="cls-2" data-name="Trazado 45"/>
                    <path id="Trazado_46" d="M331.327 55.027h1.636l3.456 8.123h-1.855l-.737-1.809h-3.41l-.737 1.809h-1.81zm1.866 4.747l-1.071-2.616-1.072 2.616z" class="cls-2" data-name="Trazado 46"/>
                    <path id="Trazado_47" d="M337.7 55.084h3.145a4.02 4.02 0 0 1 4.287 4.01v.023a4.038 4.038 0 0 1-4.287 4.033H337.7zm3.145 6.464a2.3 2.3 0 0 0 2.432-2.408v-.023a2.316 2.316 0 0 0-2.432-2.431h-1.37v4.862z" class="cls-2" data-name="Trazado 47"/>
                    <path id="Trazado_48" d="M350.285 55.084h3.146a4.02 4.02 0 0 1 4.286 4.01v.023a4.038 4.038 0 0 1-4.286 4.033h-3.146zm3.146 6.464a2.3 2.3 0 0 0 2.431-2.408v-.023a2.316 2.316 0 0 0-2.431-2.431h-1.371v4.862z" class="cls-2" data-name="Trazado 48"/>
                    <path id="Trazado_49" d="M359.4 55.084h6.083v1.579h-4.32V58.3h3.8v1.578h-3.8v1.694h4.379v1.578H359.4z" class="cls-2" data-name="Trazado 49"/>
                    <path id="Trazado_50" d="M370.692 55.084h1.908l2.12 3.411 2.12-3.411h1.912v8.066h-1.763v-5.266l-2.269 3.445h-.046l-2.247-3.41v5.231h-1.739z" class="cls-2" data-name="Trazado 50"/>
                    <path id="Trazado_51" d="M380.872 55.084h6.083v1.579h-4.321V58.3h3.8v1.578h-3.8v1.694h4.379v1.578h-6.141zm3.375-2.672l1.51.656-1.475 1.383h-1.336z" class="cls-2" data-name="Trazado 51"/>
                    <path id="Trazado_52" d="M390.965 59.048l-2.7-3.964h2.073l1.694 2.616 1.7-2.616h2.017l-2.7 3.941 2.81 4.125H393.8l-1.809-2.765-1.82 2.765h-2.017z" class="cls-2" data-name="Trazado 52"/>
                    <path id="Trazado_53" d="M397.232 55.084h1.775v8.066h-1.775z" class="cls-2" data-name="Trazado 53"/>
                    <path id="Trazado_54" d="M400.724 59.14v-.023a4.1 4.1 0 0 1 4.2-4.171 4.162 4.162 0 0 1 3.18 1.244l-1.129 1.3a2.978 2.978 0 0 0-2.063-.911 2.389 2.389 0 0 0-2.338 2.512v.023a2.394 2.394 0 0 0 2.338 2.534 2.909 2.909 0 0 0 2.12-.944l1.129 1.141a4.121 4.121 0 0 1-3.306 1.44 4.071 4.071 0 0 1-4.131-4.145z" class="cls-2" data-name="Trazado 54"/>
                    <path id="Trazado_55" d="M409 59.14v-.023a4.287 4.287 0 0 1 8.571-.023v.023a4.287 4.287 0 0 1-8.571.023zm6.717 0v-.023a2.451 2.451 0 0 0-2.443-2.535 2.412 2.412 0 0 0-2.419 2.512v.023a2.449 2.449 0 0 0 2.442 2.534 2.411 2.411 0 0 0 2.424-2.511z" class="cls-2" data-name="Trazado 55"/>
                </g>
            </g>
        </g>
    </g>
</svg>
