<?xml version="1.0" encoding="UTF-8"?>
<svg width="474px" height="48px" viewBox="0 0 474 48" version="1.1" xmlns="http://www.w3.org/2000/svg" xmlns:xlink="http://www.w3.org/1999/xlink">
    <!-- Generator: Sketch 61.2 (89653) - https://sketch.com -->
    <title>Group 17</title>
    <desc>Created with Sketch.</desc>
    <g id="Operador-Locatel" stroke="none" stroke-width="1" fill="none" fill-rule="evenodd">
        <g id="Group-17">
            <line x1="201.16" y1="6.26716981" x2="201.16" y2="39.5559375" id="Line" stroke="#898D8D" stroke-linecap="square" fill-rule="nonzero"></line>
            <g id="Group-24" transform="translate(-0.000000, 0.000000)">
                <path d="M63.6325889,26.3221622 C63.8829384,26.700973 64.2297768,26.8722162 64.7174368,26.8851892 C65.3811238,26.9007568 65.8061964,26.2534054 65.8061964,26.2534054 L76.811144,12.2231351 C77.7199649,11.2812973 78.6157468,12.0428108 78.6157468,12.0428108 C79.4867545,12.947027 78.8374104,13.7747027 78.8374104,13.7747027 L76.3756402,16.9076757 L76.3756402,16.9232432 C76.1644078,17.1411892 76.0340174,17.4356757 76.0340174,17.7612973 C76.0340174,18.0596757 76.1435453,18.3321081 76.323484,18.5422703 L76.323484,18.5474595 L78.7995972,21.6713514 L86.6008533,11.7989189 L83.4832195,7.84605405 L82.9081979,7.10140541 C82.4022833,6.37751351 81.2717987,6.21016216 81.2717987,6.21016216 L76.6012155,6.21016216 C75.362507,6.21016216 74.6883887,7.06248649 74.6883887,7.06248649 L61.6063225,23.7638919 L63.6325889,26.3221622 Z" id="Fill-32" fill="#00B140"></path>
                <path d="M63.0780386,17.7605189 L59.9486697,13.7674378 C59.3123646,12.7477622 60.2407441,12.0173838 60.2407441,12.0173838 C61.4090418,11.3388973 62.0870718,12.3845189 62.0870718,12.3845189 L64.6766246,15.692627 L67.7407984,11.7657081 L64.2072193,7.24332973 C63.3635936,6.04203243 62.0779445,6.20938378 62.0779445,6.20938378 L57.858512,6.20938378 C56.5076677,6.20938378 55.9274305,7.04484324 55.9274305,7.04484324 L52.195658,11.756627 L59.9969141,21.670573 L63.0780386,17.7605189 Z" id="Fill-33" fill="#00B140"></path>
                <path d="M75.1384963,21.1634595 C75.1384963,21.1634595 74.7786189,20.6095135 74.0849421,20.6197479 C73.3625794,20.6302703 73.0718089,21.108973 73.0718089,21.108973 L61.9534217,35.3143784 C61.0524242,36.299027 60.0836237,35.5076757 60.0836237,35.5076757 C59.2139199,34.6021622 59.9271552,33.7641081 59.9271552,33.7641081 L62.4202192,30.5779459 L62.4215231,30.5610811 C62.6314516,30.3444324 62.761842,30.0486486 62.761842,29.723027 C62.761842,29.4259459 62.6523141,29.1522162 62.4723754,28.9433514 L62.4723754,28.9368649 L59.9962621,25.8142703 L52.1702319,35.796973 L56.5330938,41.2923243 L63.3903236,41.3091892 L77.1804096,23.7619459 L75.1384963,21.1634595 Z" id="Fill-34" fill="#00B140"></path>
                <path d="M75.7133875,29.7244541 L78.8688345,33.7642378 C79.5964128,34.7670486 78.6784646,35.5078054 78.6784646,35.5078054 C77.467138,36.3173189 76.7265207,35.1082378 76.7265207,35.1082378 L74.0848117,31.7702919 L71.0206379,35.6985081 L75.4408716,41.3261838 L82.2459452,41.3093189 L86.6088071,35.7452108 L78.7906003,25.8092108 L75.7133875,29.7244541 Z" id="Fill-35" fill="#00B140"></path>
                <path d="M86.5507834,20.6724324 C84.8061602,20.6724324 83.386209,22.067027 83.386209,23.7807568 C83.386209,25.4931892 84.8061602,26.8877838 86.5507834,26.8877838 C88.2954066,26.8877838 89.7153578,25.4931892 89.7153578,23.7807568 C89.7153578,22.067027 88.2954066,20.6724324 86.5507834,20.6724324 M86.5507834,25.4516757 C85.6328352,25.4516757 84.8870023,24.7018378 84.8870023,23.7807568 C84.8870023,22.8583784 85.6328352,22.1085405 86.5507834,22.1085405 C87.4687317,22.1085405 88.2145646,22.8583784 88.2145646,23.7807568 C88.2145646,24.7018378 87.4687317,25.4516757 86.5507834,25.4516757" id="Fill-36" fill="#00B140"></path>
                <path d="M69.3791535,6.21535135 C71.1237767,6.21535135 72.5437279,4.82075676 72.5437279,3.10702703 C72.5437279,1.39459459 71.1237767,-1.28785871e-14 69.3791535,-1.28785871e-14 C67.6345303,-1.28785871e-14 66.2145791,1.39459459 66.2145791,3.10702703 C66.2145791,4.82075676 67.6345303,6.21535135 69.3791535,6.21535135 M69.3791535,1.43740541 C70.2971017,1.43740541 71.0429347,2.18594595 71.0429347,3.10702703 C71.0429347,4.02940541 70.2971017,4.77924324 69.3791535,4.77924324 C68.4612052,4.77924324 67.7153723,4.02940541 67.7153723,3.10702703 C67.7153723,2.18594595 68.4612052,1.43740541 69.3791535,1.43740541" id="Fill-37" fill="#00B140"></path>
                <path d="M55.3259397,23.7688216 C55.3259397,22.0550919 53.9059885,20.6604973 52.1626692,20.6604973 C50.4167421,20.6604973 48.9967909,22.0550919 48.9967909,23.7688216 C48.9967909,25.4812541 50.4167421,26.8758486 52.1626692,26.8758486 C53.9059885,26.8758486 55.3259397,25.4812541 55.3259397,23.7688216 M50.4975842,23.7688216 C50.4975842,22.8477405 51.244721,22.0979027 52.1626692,22.0979027 C53.0793136,22.0979027 53.8264504,22.8477405 53.8264504,23.7688216 C53.8264504,24.6899027 53.0793136,25.4397405 52.1626692,25.4397405 C51.244721,25.4397405 50.4975842,24.6899027 50.4975842,23.7688216" id="Fill-38" fill="#00B140"></path>
                <path d="M35.4687896,3.96908108 L35.4687896,27.2075676 C35.4687896,30.0227027 34.5782234,32.6237838 32.8231689,34.9342703 C31.3927865,36.8179459 29.3860787,38.5238919 26.8578093,40.0041081 C22.9891269,42.2717838 19.0578571,43.3161081 18.1764182,43.5327568 C17.298891,43.3174054 13.4002188,42.2847568 9.53284026,40.0261622 C6.99544358,38.5446486 4.9809123,36.8374054 3.54401037,34.9524324 C1.77982861,32.6367568 0.885350641,30.0304865 0.885350641,27.2075676 L0.885350641,3.96908108 L35.4687896,3.96908108 Z M36.3528364,3.08951351 L4.97379915e-14,3.08951351 L4.97379915e-14,27.2075676 C4.97379915e-14,40.4464865 18.1685948,44.4343784 18.1685948,44.4343784 L18.1855455,44.4343784 C18.1855455,44.4343784 36.3528364,40.4464865 36.3528364,27.2075676 L36.3528364,3.08951351 Z" id="Fill-40" fill="#898D8D"></path>
                <path d="M22.5799619,10.8090811 L22.5799619,8.5932973 L20.2903069,8.5932973 L20.2903069,10.6611892 L19.395829,10.6611892 L19.395829,8.5932973 L17.0370671,8.5932973 L17.0370671,10.6611892 L16.1425891,10.6611892 L16.1425891,8.5932973 L13.8151209,8.5932973 L13.8151209,10.8103784 L14.9508211,12.7524324 C14.9899382,12.8211892 15.0108007,12.8977297 15.0108007,12.9755676 L15.0212319,23.1191351 L16.1217267,23.1191351 L16.1099915,19.4763243 C16.1099915,18.6162162 17.0931349,17.8365405 18.1714633,17.8365405 C19.2510956,17.8365405 20.2329352,18.6162162 20.2329352,19.475027 L20.2433664,23.1191351 L21.3738509,23.1191351 L21.3699392,19.2726486 C21.3686353,19.2557838 21.3673314,19.2376216 21.3673314,19.2194595 L21.3673314,17.3124324 C21.3673314,17.3020541 21.3673314,17.292973 21.3686353,17.2838919 L21.3673314,15.8944865 C21.3673314,15.8918919 21.3673314,15.8905946 21.3673314,15.888 L21.3673314,15.2821622 L21.3647236,12.9768649 C21.3647236,12.8977297 21.3855861,12.8185946 21.427311,12.7498378 L22.5799619,10.8090811 Z" id="Fill-41" fill="#898D8D"></path>
                <path d="M14.1262324,23.3557622 L14.1236246,19.9944649 L13.7168066,20.2370595 C13.5668577,20.3278703 13.3790955,20.3213838 13.2343622,20.2227892 L12.7427905,19.8893838 C12.7440944,19.9036541 12.7453983,19.9179243 12.7440944,19.9321946 L12.7284476,21.2268973 C12.7258398,21.3631135 12.6619485,21.4889514 12.5563323,21.5719784 C12.6071845,21.5875459 12.6554289,21.6134919 12.6984578,21.6472216 C13.2943418,22.1220324 13.3386745,22.8018162 13.209588,23.3557622 L14.1262324,23.3557622 Z" id="Fill-42" fill="#898D8D"></path>
                <path d="M18.1715937,18.7253189 C17.4857404,18.7253189 17.0045999,19.2118054 17.0045999,19.4751568 L17.016335,23.1192649 L19.3503227,23.1192649 L19.3398915,19.4764541 C19.3398915,19.2118054 18.8574471,18.7253189 18.1715937,18.7253189" id="Fill-43" fill="#898D8D"></path>
                <path d="M4.54436532,23.3557622 C4.41788666,23.0755459 4.32270169,22.7343568 4.25881041,22.3334919 C4.14537078,21.6316541 4.16884105,20.9856 4.16884105,20.9583568 C4.17666447,20.7702486 4.30314313,20.6054919 4.48438575,20.5497081 L5.46231356,20.2500324 L4.35790709,19.4729514 C4.24055575,19.388627 4.16884105,19.2537081 4.16884105,19.1097081 L4.16884105,17.8772757 C4.16884105,17.7112216 4.26272212,17.5594378 4.41006324,17.4828973 L4.84165538,17.2597622 L4.84165538,16.8407351 L4.44787645,16.6811676 C4.27967287,16.6150054 4.16884105,16.4515459 4.16884105,16.2712216 L4.16753714,14.7884108 C4.16753714,14.5445189 4.36573051,14.3460324 4.60956051,14.3434378 L5.99039458,14.3304649 C5.9656204,13.9672216 5.95779698,13.4703568 6.04646244,13.0591135 C6.16772548,12.5038703 6.48457409,11.900627 6.63582693,11.6307892 L6.56280832,11.1170595 C6.54455367,10.9899243 6.58236688,10.8614919 6.66712062,10.7628973 C6.75317827,10.6668973 6.87704912,10.6098162 7.00613559,10.6098162 L7.74936072,10.6098162 C7.83411447,10.6098162 7.91756431,10.6344649 7.98927901,10.6798703 L9.80692083,11.8266811 L10.6427231,11.8266811 C10.7652901,11.8266811 10.8813375,11.8746811 10.9660913,11.9628973 C11.050845,12.0511135 11.0951777,12.1691676 11.0899621,12.2911135 L11.0273747,13.7155459 C11.0208552,13.8361946 10.9673952,13.9464649 10.8813375,14.0256 L11.4368005,14.0268973 C11.5580636,14.0268973 11.674111,14.0761946 11.7588647,14.1631135 L12.0118221,14.4251676 L12.2047998,14.278573 L12.526864,13.6013838 C12.6011866,13.4470054 12.7589589,13.3484108 12.9310742,13.3484108 L14.1176266,13.3484108 L14.1176266,13.0967351 L12.9819264,11.1546811 C12.9415054,11.0859243 12.920643,11.0093838 12.920643,10.9302486 L12.920643,8.14884324 C12.920643,7.90365405 13.1214441,7.70516757 13.3691859,7.70516757 L16.1425891,7.70516757 L17.0370671,7.70516757 L19.395829,7.70516757 L20.2903069,7.70516757 L23.0272009,7.70516757 C23.2736387,7.70516757 23.4744399,7.90365405 23.4744399,8.14884324 L23.4744399,10.9302486 C23.4744399,11.0106811 23.4522735,11.0885189 23.4118525,11.1572757 L22.2592016,13.0980324 L22.2592016,13.3484108 L23.4366267,13.3484108 C23.608742,13.3484108 23.7665143,13.4470054 23.8395329,13.6013838 L24.162901,14.278573 L24.3545749,14.4251676 L24.6088361,14.1631135 C24.6935899,14.0761946 24.8083334,14.0268973 24.9295964,14.0268973 L25.4850594,14.0256 C25.4003057,13.9464649 25.3455417,13.8361946 25.3403261,13.7155459 L25.2777387,12.2911135 C25.2712192,12.1691676 25.3168559,12.0511135 25.4003057,11.9628973 C25.4850594,11.8746811 25.6011069,11.8266811 25.7236738,11.8266811 L26.56078,11.8266811 L28.3784218,10.6798703 C28.4501365,10.6344649 28.5322825,10.6098162 28.6170362,10.6098162 L29.3615653,10.6098162 C29.4906517,10.6098162 29.6145226,10.6668973 29.6992763,10.7628973 C29.7840301,10.8614919 29.8218433,10.9899243 29.8035886,11.1170595 L29.73057,11.6307892 C29.8831268,11.900627 30.1999754,12.5038703 30.3199345,13.0591135 C30.4086,13.4703568 30.4020805,13.9672216 30.3773063,14.3304649 L31.7568364,14.3434378 C32.0019703,14.3460324 32.2001637,14.5445189 32.2001637,14.7884108 L32.1975559,16.2712216 C32.1975559,16.4515459 32.088028,16.6150054 31.9185205,16.6811676 L31.5260455,16.8407351 L31.5260455,17.2597622 L31.9563337,17.4828973 C32.1049787,17.5594378 32.1975559,17.7112216 32.1975559,17.8772757 L32.1975559,19.1097081 C32.1975559,19.2537081 32.1271451,19.388627 32.0084899,19.4729514 L30.9053873,20.2500324 L31.8833151,20.5497081 C32.0632538,20.6054919 32.1897325,20.7702486 32.1975559,20.9583568 C32.1975559,20.9856 32.2210262,21.6316541 32.1088905,22.3334919 C32.0449992,22.7343568 31.9498142,23.0755459 31.8220316,23.3557622 L33.4493035,23.3557622 C33.455823,23.3557622 33.4623425,23.3570595 33.470166,23.3570595 L33.470166,6.16657297 L2.92491688,6.16657297 L2.92491688,23.3557622 L4.54436532,23.3557622 Z" id="Fill-44" fill="#898D8D"></path>
                <path d="M23.6687215,21.6473514 C23.7117503,21.6136216 23.7599948,21.588973 23.810847,21.5708108 C23.7052308,21.4890811 23.6413395,21.3632432 23.6387317,21.227027 L23.621781,19.9323243 C23.621781,19.9180541 23.621781,19.9037838 23.6230849,19.8895135 L23.1328171,20.2229189 C22.9893877,20.3215135 22.8003216,20.3267027 22.6503727,20.2371892 L22.2644172,20.0075676 L22.2683289,23.3558919 L23.1562874,23.3558919 C23.0298087,22.8019459 23.0728375,22.1221622 23.6687215,21.6473514" id="Fill-45" fill="#898D8D"></path>
                <path d="M29.606308,32.5476324 C29.3598702,32.5476324 29.159069,32.3491459 29.159069,32.1026595 L29.159069,29.1967135 C29.159069,28.9800649 29.0286786,28.7115243 28.8252697,28.5130378 C28.6557622,28.3469838 28.359776,28.1472 27.9073214,28.1575784 C27.2214681,28.1692541 26.8094345,28.6959568 26.7533666,29.2187676 L26.7533666,32.1026595 C26.7533666,32.2207135 26.7051222,32.3335784 26.6216723,32.4179027 C26.5382225,32.5009297 26.4247829,32.5476324 26.3061276,32.5476324 L23.6487718,32.5476324 C23.4010301,32.5476324 23.2015328,32.3491459 23.2015328,32.1026595 L23.2015328,29.1967135 C23.2015328,28.9800649 23.0698385,28.7115243 22.8677335,28.5130378 C22.698226,28.3469838 22.4009359,28.1472 21.9497852,28.1575784 C21.6498874,28.1627676 21.3812832,28.2704432 21.1739625,28.4637405 L23.3580013,39.5478486 C26.4326063,38.1934703 30.0731055,35.9815784 32.0393924,32.5476324 L29.606308,32.5476324 Z" id="Fill-46" fill="#898D8D"></path>
                <path d="M19.430904,24.2454486 L16.93784,24.2454486 L13.8710584,39.8311784 C13.8658428,39.8519351 13.8606272,39.8739892 13.8528038,39.8934486 C15.9846864,40.7639351 17.7149666,41.2063135 18.197411,41.3568 C18.6876788,41.2037189 20.4075279,40.7639351 22.5237636,39.9025297 C22.5146363,39.8778811 22.5068129,39.8519351 22.5015973,39.8246919 L19.430904,24.2454486 Z" id="Fill-47" fill="#898D8D"></path>
                <path d="M15.1996059,28.4493405 C14.9935891,28.2664216 14.7302006,28.1639351 14.43943,28.1587459 C14.4329105,28.1587459 14.4237832,28.1587459 14.4159598,28.1587459 C13.979152,28.1587459 13.6896854,28.3507459 13.5227857,28.5155027 C13.3193767,28.7139892 13.1889864,28.9812324 13.1889864,29.1978811 L13.1889864,32.1051243 C13.1889864,32.3503135 12.9881852,32.5500973 12.7417474,32.5500973 L10.0843915,32.5500973 C9.96573631,32.5500973 9.85099278,32.5033946 9.76884684,32.4203676 C9.685397,32.3360432 9.63715256,32.2231784 9.63715256,32.1051243 L9.63715256,29.2199351 C9.5797808,28.6971243 9.16905112,28.1704216 8.48319775,28.1587459 C8.47537433,28.1587459 8.46755091,28.1587459 8.45842358,28.1587459 C8.02161583,28.1587459 7.7321492,28.3507459 7.56524952,28.5155027 C7.36184053,28.7139892 7.23145016,28.9812324 7.23145016,29.1978811 L7.23145016,32.1051243 C7.23145016,32.3503135 7.03064898,32.5500973 6.78421117,32.5500973 L4.36025412,32.5500973 C6.32132535,35.9723676 9.95008946,38.1816649 13.0168711,39.5386378 L15.1996059,28.4493405 Z" id="Fill-48" fill="#898D8D"></path>
                <path d="M33.4491731,24.2450595 L20.3410288,24.2450595 L20.9851572,27.5116541 C21.27332,27.358573 21.5966881,27.2729514 21.9357031,27.2677622 C22.5237636,27.2573838 23.0818344,27.4753297 23.4951719,27.8800865 C23.8720001,28.2472216 24.0962716,28.7401946 24.0962716,29.1955459 L24.0962716,31.6578162 L25.8591494,31.6578162 L25.8591494,29.1955459 C25.8591494,29.182573 25.8591494,29.1683027 25.8604533,29.1540324 C25.9582461,28.0954378 26.8331655,27.284627 27.8919354,27.2677622 C28.4878194,27.2573838 29.0393706,27.4753297 29.4527081,27.8800865 C29.8295363,28.2472216 30.0538078,28.7401946 30.0538078,29.1955459 L30.0538078,31.6578162 L32.4960195,31.6578162 C33.1075503,30.3241946 33.4700356,28.8219243 33.4700356,27.1328432 L33.4700356,24.2437622 C33.4622121,24.2437622 33.4556926,24.2450595 33.4491731,24.2450595" id="Fill-49" fill="#898D8D"></path>
                <path d="M6.33723297,31.6596324 L6.33723297,29.1986595 C6.33723297,28.7407135 6.56150442,28.2490378 6.93702869,27.8806054 C7.35036618,27.4771459 7.90582917,27.2604973 8.49780147,27.2682811 C9.55657131,27.2864432 10.4314907,28.0972541 10.5292835,29.1558486 C10.5305874,29.1701189 10.5318913,29.1843892 10.5318913,29.1986595 L10.5318913,31.6596324 L12.2947692,31.6596324 L12.2947692,29.1986595 C12.2947692,28.7407135 12.5190406,28.2490378 12.8945649,27.8806054 C13.3079024,27.4771459 13.8633654,27.2604973 14.4553377,27.2682811 C14.7852253,27.2747676 15.1033778,27.3564973 15.385021,27.5043892 L16.0265417,24.2455784 L2.92622078,24.2455784 L2.92622078,27.1320649 C2.92622078,28.8224432 3.29000992,30.3247135 3.90154078,31.6596324 L6.33723297,31.6596324 Z" id="Fill-50" fill="#898D8D"></path>
                <path d="M7.38830978,22.4392216 L8.11328026,22.4392216 C8.16934812,22.5287351 8.20064181,22.6312216 8.21498475,22.7376 C8.21759256,22.7972757 8.22150427,22.8582486 8.22671989,22.9192216 C8.22541598,23.0748973 8.198034,23.2292757 8.16543641,23.3564108 L5.62673582,23.3564108 C5.26033887,23.1073297 5.07648844,22.1174919 5.0608416,21.3040865 L6.17176759,20.9628973 C6.35952973,20.9045189 6.48731229,20.7319784 6.48731229,20.5373838 L6.48731229,20.1118703 C6.48731229,19.966573 6.41690149,19.8316541 6.29824625,19.748627 L5.06475331,18.8794378 L5.06475331,18.1477622 L5.49504154,17.924627 C5.64238267,17.8480865 5.73495983,17.6950054 5.73495983,17.5302486 L5.73495983,16.5417081 C5.73495983,16.3587892 5.62412801,16.196627 5.45592443,16.1278703 L5.0634494,15.9708973 L5.0621455,15.2288432 L6.23435497,15.2184649 L6.79112186,16.126573 L6.79503358,17.3927351 L6.41168588,18.5940324 C6.36996096,18.7302486 6.39343122,18.8768432 6.47818497,18.9923027 C6.56163481,19.1064649 6.69724079,19.1739243 6.8393663,19.1739243 L7.17707737,19.1739243 C7.3961332,19.1739243 7.58259144,19.0156541 7.61779684,18.8003027 C7.65039443,18.6031135 7.75731454,18.0348973 7.85641122,17.7793297 C7.93334154,17.5808432 8.25279796,17.1540324 8.45359914,16.9153297 C8.59442074,16.7479784 8.59181293,16.5027892 8.44838352,16.3367351 L6.91108101,14.5814919 C6.88109122,14.3168432 6.82632727,13.6902486 6.92151224,13.246573 C7.02582454,12.7639784 7.3622317,12.1503568 7.48219085,11.9544649 C7.53695481,11.8662486 7.55781727,11.7624649 7.54347432,11.6586811 L7.52130796,11.4991135 L7.62040464,11.4991135 L9.43804646,12.6472216 C9.50976117,12.6913297 9.5919071,12.7159784 9.67796475,12.7159784 L10.176056,12.7159784 L10.1460662,13.3801946 L9.56061341,13.5916541 C9.3819786,13.6552216 9.26462726,13.8238703 9.26462726,14.0119784 L9.26853898,14.468627 C9.26984288,14.7138162 9.46934015,14.9110054 9.71447406,14.9110054 L11.2452571,14.9161946 L11.6455555,15.3287351 C11.8033279,15.4921946 12.058893,15.5103568 12.2388317,15.3728432 C12.2388317,15.3728432 12.9338124,14.8214919 12.9651061,14.7579243 L13.2128478,14.2377081 L14.1060219,14.2377081 L14.1060219,15.2833297 L14.1060219,15.8567351 C14.1060219,15.8567351 12.4735344,16.4132757 12.3379284,16.4794378 C12.2323122,16.532627 12.1736365,17.0346811 12.1931951,17.156627 C12.2114497,17.2772757 12.2049302,17.3252757 12.3809572,17.4550054 C12.3809572,17.4550054 12.8555782,17.8260324 13.0003115,17.8779243 L13.4749325,17.4277622 L14.1034141,17.4692757 L14.1021102,18.9702486 L13.5023144,19.3270054 L11.6273008,18.0504649 C11.4330192,17.9181405 11.1670228,17.9583568 11.0222895,18.1438703 L10.7289112,18.5174919 C10.5867857,18.6991135 10.6063442,18.958573 10.7745478,19.1168432 L11.8476606,20.1170595 L11.8372293,20.9304649 L10.7602049,21.406573 C10.5998247,21.476627 10.4955124,21.6374919 10.4955124,21.812627 L10.4955124,21.9942486 C10.4955124,22.2407351 10.6950097,22.4392216 10.9427514,22.4392216 L12.2375278,22.4392216 C12.4617992,22.7155459 12.3731338,23.1073297 12.2792527,23.3564108 L9.29461705,23.3564108 C9.19291256,23.2500324 9.14075641,23.0632216 9.11989395,22.8530595 C9.11859005,22.7972757 9.11467833,22.7388973 9.10946272,22.6818162 C9.1016393,22.3990054 9.1381486,22.1071135 9.17596181,21.9410595 L9.87094251,21.0563027 C9.92831427,20.9823568 9.96091186,20.8954378 9.96482357,20.8033297 L9.98568603,20.3791135 C9.99350946,20.2260324 9.92179475,20.0820324 9.79661999,19.9938162 C9.67144523,19.9068973 9.51106507,19.8874378 9.37024347,19.9458162 L8.24888625,20.4011676 C8.10284903,20.4608432 7.99853673,20.5918703 7.97637037,20.7475459 L7.90987128,21.1925189 L7.25922331,21.3884108 C7.07015727,21.4441946 6.94107079,21.6180324 6.94107079,21.8139243 L6.94107079,21.9942486 C6.94107079,22.2407351 7.14187197,22.4392216 7.38830978,22.4392216" id="Fill-51" fill="#898D8D"></path>
                <path d="M28.9791303,22.4392216 L28.2541598,22.4392216 C28.198092,22.5287351 28.1667983,22.6312216 28.1511514,22.7376 C28.1498475,22.7972757 28.1459358,22.8582486 28.1407202,22.9192216 C28.1420241,23.0748973 28.1694061,23.2292757 28.2006998,23.3564108 L30.7407043,23.3564108 C31.1071012,23.1073297 31.2896477,22.1174919 31.3065985,21.3040865 L30.1956725,20.9628973 C30.0079103,20.9045189 29.8788239,20.7319784 29.8788239,20.5373838 L29.8788239,20.1118703 C29.8788239,19.966573 29.9505386,19.8316541 30.0678899,19.748627 L31.3026868,18.8794378 L31.3026868,18.1477622 L30.8723985,17.924627 C30.7250574,17.8480865 30.6311763,17.6950054 30.6311763,17.5302486 L30.6311763,16.5417081 C30.6311763,16.3587892 30.7433121,16.196627 30.9102117,16.1278703 L31.3039907,15.9708973 L31.3039907,15.2288432 L30.1330851,15.2184649 L29.5763182,16.126573 L29.5724065,17.3927351 L29.9544503,18.5940324 C29.9974791,18.7302486 29.9727049,18.8768432 29.8892551,18.9923027 C29.8045014,19.1064649 29.6701993,19.1739243 29.5280738,19.1739243 L29.1903627,19.1739243 C28.9713069,19.1739243 28.7848486,19.0156541 28.7483393,18.8003027 C28.7157417,18.6031135 28.6101255,18.0348973 28.5097249,17.7793297 C28.4327946,17.5808432 28.1146421,17.1540324 27.9138409,16.9153297 C27.7730193,16.7479784 27.7743232,16.5027892 27.9190566,16.3367351 L29.4563591,14.5814919 C29.4863489,14.3168432 29.5411128,13.6902486 29.4459278,13.246573 C29.3416155,12.7639784 29.0052084,12.1503568 28.8852492,11.9544649 C28.8304853,11.8662486 28.8096228,11.7624649 28.8239658,11.6586811 L28.8461321,11.4991135 L28.7470354,11.4991135 L26.9293936,12.6472216 C26.8576789,12.6913297 26.7742291,12.7159784 26.6894753,12.7159784 L26.1913841,12.7159784 L26.2213739,13.3801946 L26.8068267,13.5916541 C26.9841576,13.6552216 27.1028128,13.8238703 27.1015089,14.0119784 L27.0989011,14.468627 C27.0975972,14.7138162 26.8980999,14.9110054 26.652966,14.9110054 L25.122183,14.9161946 L24.7218846,15.3287351 C24.5641122,15.4921946 24.3085471,15.5103568 24.1286084,15.3728432 C24.1286084,15.3728432 23.4323238,14.8214919 23.402334,14.7579243 L23.1532884,14.2377081 L22.2614182,14.2377081 L22.2614182,15.2833297 L22.2614182,15.8567351 C22.2614182,15.8567351 23.8939057,16.4132757 24.0282078,16.4794378 C24.1351279,16.532627 24.1938036,17.0346811 24.174245,17.156627 C24.1559904,17.2772757 24.1625099,17.3252757 23.9864829,17.4550054 C23.9864829,17.4550054 23.5118619,17.8260324 23.3658247,17.8779243 L22.8925076,17.4277622 L22.264026,17.4692757 L22.2653299,18.9702486 L22.8651256,19.3270054 L24.7401392,18.0504649 C24.9344209,17.9181405 25.2004172,17.9583568 25.3438467,18.1438703 L25.6385289,18.5174919 C25.7806544,18.6991135 25.7610959,18.958573 25.5915884,19.1168432 L24.5197795,20.1170595 L24.5302107,20.9304649 L25.6072352,21.406573 C25.7676154,21.476627 25.8719277,21.6374919 25.8719277,21.812627 L25.8719277,21.9942486 C25.8719277,22.2407351 25.6711265,22.4392216 25.4246887,22.4392216 L24.1299123,22.4392216 C23.9056408,22.7155459 23.9943063,23.1073297 24.0881874,23.3564108 L27.072823,23.3564108 C27.1745275,23.2500324 27.2266837,23.0632216 27.2475461,22.8530595 C27.24885,22.7972757 27.2527617,22.7388973 27.2579774,22.6818162 C27.2658008,22.3990054 27.2292915,22.1071135 27.1914783,21.9410595 L26.4964976,21.0563027 C26.4391258,20.9823568 26.4065282,20.8954378 26.4013126,20.8033297 L26.381754,20.3791135 C26.3739306,20.2260324 26.4456453,20.0820324 26.5708201,19.9938162 C26.6959948,19.9068973 26.856375,19.8874378 26.9971966,19.9458162 L28.1185538,20.4011676 C28.264591,20.4608432 28.3689033,20.5918703 28.3910697,20.7475459 L28.4575688,21.1925189 L29.1082168,21.3884108 C29.2972828,21.4441946 29.4263693,21.6180324 29.4263693,21.8139243 L29.4263693,21.9942486 C29.4263693,22.2407351 29.2255681,22.4392216 28.9791303,22.4392216" id="Fill-52" fill="#898D8D"></path>
                <path d="M99.2848378,18.4959568 L99.2848378,18.4790919 C99.2848378,16.7887135 100.532674,15.2916324 102.390736,15.2916324 C103.435163,15.2916324 104.0819,15.5913081 104.69995,16.110227 L104.248799,16.638227 C103.770267,16.2256865 103.240882,15.9337946 102.364658,15.9337946 C100.992952,15.9337946 100.011112,17.0870919 100.011112,18.4609297 L100.011112,18.4790919 C100.011112,19.9489297 100.957746,21.0399568 102.461147,21.0399568 C103.169167,21.0399568 103.823727,20.7675243 104.248799,20.4237405 L104.248799,18.8916324 L102.364658,18.8916324 L102.364658,18.2663351 L104.921614,18.2663351 L104.921614,20.7234162 C104.346592,21.2332541 103.479496,21.6652541 102.435069,21.6652541 C100.488341,21.6652541 99.2848378,20.2563892 99.2848378,18.4959568" id="Fill-53" fill="#898D8D"></path>
                <path d="M107.211399,18.4959568 L107.211399,18.4790919 C107.211399,16.7796324 108.49444,15.2916324 110.379885,15.2916324 C112.264026,15.2916324 113.530117,16.7614703 113.530117,18.4609297 L113.530117,18.4790919 C113.530117,20.1785514 112.247075,21.6652541 110.362934,21.6652541 C108.47749,21.6652541 107.211399,20.1954162 107.211399,18.4959568 M112.805146,18.4959568 L112.805146,18.4790919 C112.805146,17.0793081 111.77767,15.9337946 110.362934,15.9337946 C108.946895,15.9337946 107.937673,17.0611459 107.937673,18.4609297 L107.937673,18.4790919 C107.937673,19.8788757 108.963846,21.0230919 110.379885,21.0230919 C111.795925,21.0230919 112.805146,19.8970378 112.805146,18.4959568" id="Fill-54" fill="#898D8D"></path>
                <path d="M116.033873,15.3964541 L118.670366,15.3964541 C119.377082,15.3964541 119.936456,15.6001297 120.289814,15.9426162 C120.546683,16.2072649 120.687505,16.5328865 120.687505,16.9285622 L120.687505,16.9467243 C120.687505,17.7471568 120.192022,18.1609946 119.705665,18.3724541 C120.441067,18.5929946 121.033039,19.0159135 121.033039,19.8604541 L121.033039,19.8786162 C121.033039,20.9346162 120.139865,21.5599135 118.785109,21.5599135 L116.033873,21.5599135 L116.033873,15.3964541 Z M119.979485,17.0258595 C119.979485,16.4187243 119.493129,16.0217514 118.609082,16.0217514 L116.723638,16.0217514 L116.723638,18.1441297 L118.555622,18.1441297 C119.39664,18.1441297 119.979485,17.7653189 119.979485,17.0427243 L119.979485,17.0258595 Z M118.679493,18.7603459 L116.723638,18.7603459 L116.723638,20.9346162 L118.803364,20.9346162 C119.740871,20.9346162 120.32502,20.5207784 120.32502,19.8345081 L120.32502,19.8163459 C120.32502,19.1482378 119.759126,18.7603459 118.679493,18.7603459 L118.679493,18.7603459 Z" id="Fill-55" fill="#898D8D"></path>
                <polygon id="Fill-56" fill="#898D8D" points="123.532493 21.5604324 124.231385 21.5604324 124.231385 15.396973 123.532493 15.396973"></polygon>
                <polygon id="Fill-57" fill="#898D8D" points="127.061638 15.3964541 131.53794 15.3964541 131.53794 16.0308324 127.760531 16.0308324 127.760531 18.1350486 131.140249 18.1350486 131.140249 18.769427 127.760531 18.769427 127.760531 20.9255351 131.582273 20.9255351 131.582273 21.5599135 127.061638 21.5599135"></polygon>
                <path d="M133.902048,15.3964541 L136.564619,15.3964541 C137.326099,15.3964541 137.93763,15.6260757 138.326193,16.0126703 C138.627395,16.3123459 138.803422,16.7443459 138.803422,17.2282378 L138.803422,17.2464 C138.803422,18.2660757 138.095402,18.865427 137.12269,19.0418595 L139.025086,21.5599135 L138.167117,21.5599135 L136.371642,19.1638054 L134.60094,19.1638054 L134.60094,21.5599135 L133.902048,21.5599135 L133.902048,15.3964541 Z M136.503336,18.5398054 C137.431715,18.5398054 138.095402,18.0649946 138.095402,17.2723459 L138.095402,17.2541838 C138.095402,16.4978595 137.512557,16.0399135 136.511159,16.0399135 L134.60094,16.0399135 L134.60094,18.5398054 L136.503336,18.5398054 Z" id="Fill-58" fill="#898D8D"></path>
                <polygon id="Fill-59" fill="#898D8D" points="141.323738 15.3964541 141.978297 15.3964541 145.880881 20.3365622 145.880881 15.3964541 146.562823 15.3964541 146.562823 21.5599135 146.004752 21.5599135 142.004375 16.5069405 142.004375 21.5599135 141.323738 21.5599135"></polygon>
                <path d="M149.06371,18.4959568 L149.06371,18.4790919 C149.06371,16.7796324 150.346751,15.2916324 152.232196,15.2916324 C154.116337,15.2916324 155.382428,16.7614703 155.382428,18.4609297 L155.382428,18.4790919 C155.382428,20.1785514 154.099386,21.6652541 152.215246,21.6652541 C150.329801,21.6652541 149.06371,20.1954162 149.06371,18.4959568 M154.657457,18.4959568 L154.657457,18.4790919 C154.657457,17.0793081 153.629981,15.9337946 152.215246,15.9337946 C150.799206,15.9337946 149.789985,17.0611459 149.789985,18.4609297 L149.789985,18.4790919 C149.789985,19.8788757 150.816157,21.0230919 152.232196,21.0230919 C153.648236,21.0230919 154.657457,19.8970378 154.657457,18.4959568" id="Fill-60" fill="#898D8D"></path>
                <path d="M161.10826,15.3964541 L163.258398,15.3964541 C165.205126,15.3964541 166.549451,16.7261838 166.549451,18.4606703 L166.549451,18.4788324 C166.549451,20.2133189 165.205126,21.5599135 163.258398,21.5599135 L161.10826,21.5599135 L161.10826,15.3964541 Z M161.807153,16.0399135 L161.807153,20.9164541 L163.258398,20.9164541 C164.824386,20.9164541 165.82448,19.8604541 165.82448,18.4956973 L165.82448,18.4788324 C165.82448,17.1140757 164.824386,16.0399135 163.258398,16.0399135 L161.807153,16.0399135 Z" id="Fill-61" fill="#898D8D"></path>
                <polygon id="Fill-62" fill="#898D8D" points="168.771303 15.3964541 173.247604 15.3964541 173.247604 16.0308324 169.470195 16.0308324 169.470195 18.1350486 172.849913 18.1350486 172.849913 18.769427 169.470195 18.769427 169.470195 20.9255351 173.293241 20.9255351 173.293241 21.5599135 168.771303 21.5599135"></polygon>
                <polygon id="Fill-63" fill="#898D8D" points="178.859997 15.3964541 179.557585 15.3964541 179.557585 20.9164541 183.045528 20.9164541 183.045528 21.5599135 178.859997 21.5599135"></polygon>
                <path d="M187.336545,15.3528649 L187.991104,15.3528649 L190.814056,21.5604324 L190.063008,21.5604324 L189.336733,19.931027 L185.964838,19.931027 L185.23074,21.5604324 L184.513593,21.5604324 L187.336545,15.3528649 Z M189.061609,19.2979459 L187.654697,16.1636757 L186.239962,19.2979459 L189.061609,19.2979459 Z" id="Fill-64" fill="#898D8D"></path>
                <path d="M99.1524915,29.0617946 L99.1524915,29.0449297 C99.1524915,27.2922811 100.479866,25.8574703 102.382261,25.8574703 C103.550559,25.8574703 104.249451,26.2453622 104.824473,26.8083892 L103.957377,27.8034162 C103.478844,27.3714162 102.992488,27.1080649 102.373134,27.1080649 C101.328707,27.1080649 100.577658,27.9694703 100.577658,29.0267676 L100.577658,29.0449297 C100.577658,30.1009297 101.311756,30.9804973 102.373134,30.9804973 C103.081154,30.9804973 103.515353,30.6989838 104.00171,30.2592 L104.868806,31.1309838 C104.232501,31.8094703 103.524481,32.2310919 102.328801,32.2310919 C100.505944,32.2310919 99.1524915,30.8313081 99.1524915,29.0617946" id="Fill-65" fill="#898D8D"></path>
                <polygon id="Fill-66" fill="#898D8D" points="105.993683 32.1243243 107.356263 32.1243243 107.356263 25.9621622 105.993683 25.9621622"></polygon>
                <path d="M108.92851,29.484973 L108.92851,25.9628108 L110.291089,25.9628108 L110.291089,29.4499459 C110.291089,30.4527568 110.7957,30.9716757 111.627591,30.9716757 C112.459481,30.9716757 112.962788,30.4709189 112.962788,29.4927568 L112.962788,25.9628108 L114.326671,25.9628108 L114.326671,29.4408649 C114.326671,31.3076757 113.273117,32.2222703 111.609336,32.2222703 C109.946859,32.2222703 108.92851,31.2972973 108.92851,29.484973" id="Fill-67" fill="#898D8D"></path>
                <path d="M115.87597,25.9624216 L118.292103,25.9624216 C120.238832,25.9624216 121.583156,27.2921514 121.583156,29.0266378 L121.583156,29.0448 C121.583156,30.7779892 120.238832,32.1245838 118.292103,32.1245838 L115.87597,32.1245838 L115.87597,25.9624216 Z M118.292103,30.9025297 C119.406941,30.9025297 120.159294,30.1526919 120.159294,29.0616649 L120.159294,29.0448 C120.159294,27.9524757 119.406941,27.1870703 118.292103,27.1870703 L117.238549,27.1870703 L117.238549,30.9025297 L118.292103,30.9025297 Z" id="Fill-68" fill="#898D8D"></path>
                <path d="M124.602085,25.9187027 L125.859048,25.9187027 L128.513796,32.1262703 L127.088629,32.1262703 L126.522735,30.7433514 L123.903192,30.7433514 L123.337298,32.1262703 L121.947337,32.1262703 L124.602085,25.9187027 Z M126.036379,29.5459459 L125.213616,27.5468108 L124.389548,29.5459459 L126.036379,29.5459459 Z" id="Fill-69" fill="#898D8D"></path>
                <path d="M129.500069,25.9624216 L131.916202,25.9624216 C133.861627,25.9624216 135.207255,27.2921514 135.207255,29.0266378 L135.207255,29.0448 C135.207255,30.7779892 133.861627,32.1245838 131.916202,32.1245838 L129.500069,32.1245838 L129.500069,25.9624216 Z M131.916202,30.9025297 C133.03104,30.9025297 133.783393,30.1526919 133.783393,29.0616649 L133.783393,29.0448 C133.783393,27.9524757 133.03104,27.1870703 131.916202,27.1870703 L130.862648,27.1870703 L130.862648,30.9025297 L131.916202,30.9025297 Z" id="Fill-70" fill="#898D8D"></path>
                <path d="M139.16343,25.9624216 L141.579563,25.9624216 C143.526292,25.9624216 144.870617,27.2921514 144.870617,29.0266378 L144.870617,29.0448 C144.870617,30.7779892 143.526292,32.1245838 141.579563,32.1245838 L139.16343,32.1245838 L139.16343,25.9624216 Z M141.579563,30.9025297 C142.694401,30.9025297 143.446754,30.1526919 143.446754,29.0616649 L143.446754,29.0448 C143.446754,27.9524757 142.694401,27.1870703 141.579563,27.1870703 L140.526009,27.1870703 L140.526009,30.9025297 L141.579563,30.9025297 Z" id="Fill-71" fill="#898D8D"></path>
                <polygon id="Fill-72" fill="#898D8D" points="146.163698 25.9624216 150.835585 25.9624216 150.835585 27.1689081 147.51715 27.1689081 147.51715 28.4195027 150.437894 28.4195027 150.437894 29.6259892 147.51715 29.6259892 147.51715 30.9193946 150.879918 30.9193946 150.879918 32.1245838 146.163698 32.1245838"></polygon>
                <polygon id="Fill-73" fill="#898D8D" points="154.835831 25.9624216 156.304027 25.9624216 157.932603 28.5686919 159.561178 25.9624216 161.029374 25.9624216 161.029374 32.1245838 159.675922 32.1245838 159.675922 28.1016649 157.932603 30.7351784 157.897397 30.7351784 156.172333 28.1289081 156.172333 32.1245838 154.835831 32.1245838"></polygon>
                <path d="M162.65469,25.9624216 L167.326577,25.9624216 L167.326577,27.1689081 L164.008142,27.1689081 L164.008142,28.4195027 L166.927583,28.4195027 L166.927583,29.6259892 L164.008142,29.6259892 L164.008142,30.9193946 L167.37091,30.9193946 L167.37091,32.1245838 L162.65469,32.1245838 L162.65469,25.9624216 Z M165.246851,23.9204757 L166.406021,24.4225297 L165.274233,25.4785297 L164.246757,25.4785297 L165.246851,23.9204757 Z" id="Fill-74" fill="#898D8D"></path>
                <polygon id="Fill-75" fill="#898D8D" points="170.406267 28.9921297 168.335668 25.9629405 169.927735 25.9629405 171.229031 27.9620757 172.53815 25.9629405 174.087188 25.9629405 172.016589 28.9739676 174.175853 32.1264 172.582483 32.1264 171.193825 30.0131027 169.79604 32.1264 168.247003 32.1264"></polygon>
                <polygon id="Fill-76" fill="#898D8D" points="175.220541 32.1243243 176.58312 32.1243243 176.58312 25.9621622 175.220541 25.9621622"></polygon>
                <path d="M177.901106,29.0617946 L177.901106,29.0449297 C177.901106,27.2922811 179.22848,25.8574703 181.13218,25.8574703 C182.299173,25.8574703 182.99937,26.2453622 183.574391,26.8083892 L182.705991,27.8034162 C182.227459,27.3714162 181.741103,27.1080649 181.121748,27.1080649 C180.077321,27.1080649 179.326273,27.9694703 179.326273,29.0267676 L179.326273,29.0449297 C179.326273,30.1009297 180.060371,30.9804973 181.121748,30.9804973 C181.829768,30.9804973 182.263968,30.6989838 182.750324,30.2592 L183.61742,31.1309838 C182.981115,31.8094703 182.273095,32.2310919 181.07872,32.2310919 C179.254558,32.2310919 177.901106,30.8313081 177.901106,29.0617946" id="Fill-77" fill="#898D8D"></path>
                <path d="M184.260897,29.0617946 L184.260897,29.0449297 C184.260897,27.2922811 185.649554,25.8574703 187.561077,25.8574703 C189.473904,25.8574703 190.843003,27.2741189 190.843003,29.0267676 L190.843003,29.0449297 C190.843003,30.7962811 189.455649,32.2310919 187.544126,32.2310919 C185.632603,32.2310919 184.260897,30.8144432 184.260897,29.0617946 M189.420444,29.0617946 L189.420444,29.0449297 C189.420444,27.9876324 188.640709,27.1080649 187.544126,27.1080649 C186.446239,27.1080649 185.686063,27.9694703 185.686063,29.0267676 L185.686063,29.0449297 C185.686063,30.1009297 186.46319,30.9804973 187.561077,30.9804973 C188.658964,30.9804973 189.420444,30.1190919 189.420444,29.0617946" id="Fill-78" fill="#898D8D"></path>
                <path d="M69.3835867,41.3278703 C67.6389635,41.3278703 66.2190124,42.7224649 66.2190124,44.4361946 C66.2190124,46.148627 67.6389635,47.5432216 69.3835867,47.5432216 C71.12821,47.5432216 72.5468572,46.148627 72.5468572,44.4361946 C72.5468572,42.7224649 71.12821,41.3278703 69.3835867,41.3278703 M69.3835867,46.1058162 C68.4656385,46.1058162 67.7198056,45.3572757 67.7198056,44.4361946 C67.7198056,43.5138162 68.4656385,42.7639784 69.3835867,42.7639784 C70.3002311,42.7639784 71.0473679,43.5138162 71.0473679,44.4361946 C71.0473679,45.3572757 70.3002311,46.1058162 69.3835867,46.1058162" id="Fill-39" fill="#00B140"></path>
            </g>
            <path d="M213.142,22.5 L213.142,20.61 L214.195,20.61 C215.608,20.61 216.742,19.854 216.742,18.396 L216.742,18.378 C216.742,17.091 215.833,16.2 214.33,16.2 L211.756,16.2 L211.756,22.5 L213.142,22.5 Z M214.24,19.377 L213.142,19.377 L213.142,17.451 L214.213,17.451 C214.906,17.451 215.338,17.784 215.338,18.405 L215.338,18.423 C215.338,18.963 214.933,19.377 214.24,19.377 Z M222.295,22.5 L222.295,21.24 L219.154,21.24 L219.154,16.2 L217.768,16.2 L217.768,22.5 L222.295,22.5 Z M224.212,22.5 L224.788,21.087 L227.452,21.087 L228.028,22.5 L229.477,22.5 L226.777,16.155 L225.499,16.155 L222.799,22.5 L224.212,22.5 Z M226.957,19.863 L225.283,19.863 L226.12,17.82 L226.957,19.863 Z M232.492,22.5 L232.492,17.478 L234.409,17.478 L234.409,16.2 L229.189,16.2 L229.189,17.478 L231.106,17.478 L231.106,22.5 L232.492,22.5 Z M235.534,22.5 L236.11,21.087 L238.774,21.087 L239.35,22.5 L240.799,22.5 L238.099,16.155 L236.821,16.155 L234.121,22.5 L235.534,22.5 Z M238.279,19.863 L236.605,19.863 L237.442,17.82 L238.279,19.863 Z M243.157,22.5 L243.157,20.061 L246.163,20.061 L246.163,18.801 L243.157,18.801 L243.157,17.46 L246.568,17.46 L246.568,16.2 L241.771,16.2 L241.771,22.5 L243.157,22.5 Z M250.735,22.608 C252.679,22.608 254.092,21.141 254.092,19.35 L254.092,19.332 C254.092,17.541 252.697,16.092 250.753,16.092 C248.809,16.092 247.396,17.559 247.396,19.35 L247.396,19.368 C247.396,21.159 248.791,22.608 250.735,22.608 Z M250.753,21.33 C249.637,21.33 248.845,20.43 248.845,19.35 L248.845,19.332 C248.845,18.252 249.619,17.37 250.735,17.37 C251.851,17.37 252.643,18.27 252.643,19.35 L252.643,19.368 C252.643,20.448 251.869,21.33 250.753,21.33 Z M256.711,22.5 L256.711,20.484 L257.8,20.484 L259.15,22.5 L260.77,22.5 L259.231,20.25 C260.032,19.953 260.581,19.314 260.581,18.297 L260.581,18.279 C260.581,17.685 260.392,17.19 260.041,16.839 C259.627,16.425 259.006,16.2 258.205,16.2 L255.325,16.2 L255.325,22.5 L256.711,22.5 Z M258.115,19.26 L256.711,19.26 L256.711,17.451 L258.088,17.451 C258.763,17.451 259.177,17.757 259.177,18.351 L259.177,18.369 C259.177,18.9 258.79,19.26 258.115,19.26 Z M263.191,22.5 L263.191,18.414 L264.946,21.078 L264.982,21.078 L266.755,18.387 L266.755,22.5 L268.132,22.5 L268.132,16.2 L266.638,16.2 L264.982,18.864 L263.326,16.2 L261.832,16.2 L261.832,22.5 L263.191,22.5 Z M270.517,22.5 L271.093,21.087 L273.757,21.087 L274.333,22.5 L275.782,22.5 L273.082,16.155 L271.804,16.155 L269.104,22.5 L270.517,22.5 Z M273.262,19.863 L271.588,19.863 L272.425,17.82 L273.262,19.863 Z M281.911,22.5 C283.891,22.5 285.259,21.123 285.259,19.35 L285.259,19.332 C285.259,17.559 283.891,16.2 281.911,16.2 L279.454,16.2 L279.454,22.5 L281.911,22.5 Z M281.911,21.249 L280.84,21.249 L280.84,17.451 L281.911,17.451 C283.045,17.451 283.81,18.234 283.81,19.35 L283.81,19.368 C283.81,20.484 283.045,21.249 281.911,21.249 Z M291.289,22.5 L291.289,21.267 L287.869,21.267 L287.869,19.944 L290.839,19.944 L290.839,18.711 L287.869,18.711 L287.869,17.433 L291.244,17.433 L291.244,16.2 L286.492,16.2 L286.492,22.5 L291.289,22.5 Z M296.608,22.5 L296.608,20.484 L297.697,20.484 L299.047,22.5 L300.667,22.5 L299.128,20.25 C299.929,19.953 300.478,19.314 300.478,18.297 L300.478,18.279 C300.478,17.685 300.289,17.19 299.938,16.839 C299.524,16.425 298.903,16.2 298.102,16.2 L295.222,16.2 L295.222,22.5 L296.608,22.5 Z M298.012,19.26 L296.608,19.26 L296.608,17.451 L297.985,17.451 C298.66,17.451 299.074,17.757 299.074,18.351 L299.074,18.369 C299.074,18.9 298.687,19.26 298.012,19.26 Z M306.526,22.5 L306.526,21.267 L303.106,21.267 L303.106,19.944 L306.076,19.944 L306.076,18.711 L303.106,18.711 L303.106,17.433 L306.481,17.433 L306.481,16.2 L301.729,16.2 L301.729,22.5 L306.526,22.5 Z M310.792,22.608 C311.944,22.608 312.835,22.158 313.483,21.609 L313.483,18.873 L310.747,18.873 L310.747,20.07 L312.142,20.07 L312.142,20.97 C311.791,21.222 311.341,21.348 310.837,21.348 C309.721,21.348 308.929,20.502 308.929,19.35 L308.929,19.332 C308.929,18.261 309.73,17.37 310.738,17.37 C311.467,17.37 311.899,17.604 312.385,18.009 L313.258,16.956 C312.601,16.398 311.917,16.092 310.783,16.092 C308.875,16.092 307.48,17.559 307.48,19.35 L307.48,19.368 C307.48,21.231 308.83,22.608 310.792,22.608 Z M316.264,22.5 L316.264,16.2 L314.878,16.2 L314.878,22.5 L316.264,22.5 Z M320.08,22.59 C321.439,22.59 322.393,21.888 322.393,20.637 L322.393,20.619 C322.393,19.521 321.673,19.062 320.395,18.729 C319.306,18.45 319.036,18.315 319.036,17.901 L319.036,17.883 C319.036,17.577 319.315,17.334 319.846,17.334 C320.377,17.334 320.926,17.568 321.484,17.955 L322.204,16.911 C321.565,16.398 320.782,16.11 319.864,16.11 C318.577,16.11 317.659,16.866 317.659,18.009 L317.659,18.027 C317.659,19.278 318.478,19.629 319.747,19.953 C320.8,20.223 321.016,20.403 321.016,20.754 L321.016,20.772 C321.016,21.141 320.674,21.366 320.107,21.366 C319.387,21.366 318.793,21.069 318.226,20.601 L317.407,21.582 C318.163,22.257 319.126,22.59 320.08,22.59 Z M326.317,22.5 L326.317,17.478 L328.234,17.478 L328.234,16.2 L323.014,16.2 L323.014,17.478 L324.931,17.478 L324.931,22.5 L326.317,22.5 Z M330.682,22.5 L330.682,20.484 L331.771,20.484 L333.121,22.5 L334.741,22.5 L333.202,20.25 C334.003,19.953 334.552,19.314 334.552,18.297 L334.552,18.279 C334.552,17.685 334.363,17.19 334.012,16.839 C333.598,16.425 332.977,16.2 332.176,16.2 L329.296,16.2 L329.296,22.5 L330.682,22.5 Z M332.086,19.26 L330.682,19.26 L330.682,17.451 L332.059,17.451 C332.734,17.451 333.148,17.757 333.148,18.351 L333.148,18.369 C333.148,18.9 332.761,19.26 332.086,19.26 Z M338.863,22.608 C340.807,22.608 342.22,21.141 342.22,19.35 L342.22,19.332 C342.22,17.541 340.825,16.092 338.881,16.092 C336.937,16.092 335.524,17.559 335.524,19.35 L335.524,19.368 C335.524,21.159 336.919,22.608 338.863,22.608 Z M338.881,21.33 C337.765,21.33 336.973,20.43 336.973,19.35 L336.973,19.332 C336.973,18.252 337.747,17.37 338.863,17.37 C339.979,17.37 340.771,18.27 340.771,19.35 L340.771,19.368 C340.771,20.448 339.997,21.33 338.881,21.33 Z M348.61,22.5 C350.59,22.5 351.958,21.123 351.958,19.35 L351.958,19.332 C351.958,17.559 350.59,16.2 348.61,16.2 L346.153,16.2 L346.153,22.5 L348.61,22.5 Z M348.61,21.249 L347.539,21.249 L347.539,17.451 L348.61,17.451 C349.744,17.451 350.509,18.234 350.509,19.35 L350.509,19.368 C350.509,20.484 349.744,21.249 348.61,21.249 Z M357.988,22.5 L357.988,21.267 L354.568,21.267 L354.568,19.944 L357.538,19.944 L357.538,18.711 L354.568,18.711 L354.568,17.433 L357.943,17.433 L357.943,16.2 L353.191,16.2 L353.191,22.5 L357.988,22.5 Z M363.307,22.5 L363.307,20.61 L364.36,20.61 C365.773,20.61 366.907,19.854 366.907,18.396 L366.907,18.378 C366.907,17.091 365.998,16.2 364.495,16.2 L361.921,16.2 L361.921,22.5 L363.307,22.5 Z M364.405,19.377 L363.307,19.377 L363.307,17.451 L364.378,17.451 C365.071,17.451 365.503,17.784 365.503,18.405 L365.503,18.423 C365.503,18.963 365.098,19.377 364.405,19.377 Z M372.73,22.5 L372.73,21.267 L369.31,21.267 L369.31,19.944 L372.28,19.944 L372.28,18.711 L369.31,18.711 L369.31,17.433 L372.685,17.433 L372.685,16.2 L367.933,16.2 L367.933,22.5 L372.73,22.5 Z M375.349,22.5 L375.349,20.484 L376.438,20.484 L377.788,22.5 L379.408,22.5 L377.869,20.25 C378.67,19.953 379.219,19.314 379.219,18.297 L379.219,18.279 C379.219,17.685 379.03,17.19 378.679,16.839 C378.265,16.425 377.644,16.2 376.843,16.2 L373.963,16.2 L373.963,22.5 L375.349,22.5 Z M376.753,19.26 L375.349,19.26 L375.349,17.451 L376.726,17.451 C377.401,17.451 377.815,17.757 377.815,18.351 L377.815,18.369 C377.815,18.9 377.428,19.26 376.753,19.26 Z M382.711,22.59 C384.07,22.59 385.024,21.888 385.024,20.637 L385.024,20.619 C385.024,19.521 384.304,19.062 383.026,18.729 C381.937,18.45 381.667,18.315 381.667,17.901 L381.667,17.883 C381.667,17.577 381.946,17.334 382.477,17.334 C383.008,17.334 383.557,17.568 384.115,17.955 L384.835,16.911 C384.196,16.398 383.413,16.11 382.495,16.11 C381.208,16.11 380.29,16.866 380.29,18.009 L380.29,18.027 C380.29,19.278 381.109,19.629 382.378,19.953 C383.431,20.223 383.647,20.403 383.647,20.754 L383.647,20.772 C383.647,21.141 383.305,21.366 382.738,21.366 C382.018,21.366 381.424,21.069 380.857,20.601 L380.038,21.582 C380.794,22.257 381.757,22.59 382.711,22.59 Z M389.29,22.608 C391.234,22.608 392.647,21.141 392.647,19.35 L392.647,19.332 C392.647,17.541 391.252,16.092 389.308,16.092 C387.364,16.092 385.951,17.559 385.951,19.35 L385.951,19.368 C385.951,21.159 387.346,22.608 389.29,22.608 Z M389.308,21.33 C388.192,21.33 387.4,20.43 387.4,19.35 L387.4,19.332 C387.4,18.252 388.174,17.37 389.29,17.37 C390.406,17.37 391.198,18.27 391.198,19.35 L391.198,19.368 C391.198,20.448 390.424,21.33 389.308,21.33 Z M395.248,22.5 L395.248,18.495 L398.299,22.5 L399.478,22.5 L399.478,16.2 L398.11,16.2 L398.11,20.079 L395.158,16.2 L393.88,16.2 L393.88,22.5 L395.248,22.5 Z M401.863,22.5 L402.439,21.087 L405.103,21.087 L405.679,22.5 L407.128,22.5 L404.428,16.155 L403.15,16.155 L400.45,22.5 L401.863,22.5 Z M404.608,19.863 L402.934,19.863 L403.771,17.82 L404.608,19.863 Z M410.251,22.59 C411.61,22.59 412.564,21.888 412.564,20.637 L412.564,20.619 C412.564,19.521 411.844,19.062 410.566,18.729 C409.477,18.45 409.207,18.315 409.207,17.901 L409.207,17.883 C409.207,17.577 409.486,17.334 410.017,17.334 C410.548,17.334 411.097,17.568 411.655,17.955 L412.375,16.911 C411.736,16.398 410.953,16.11 410.035,16.11 C408.748,16.11 407.83,16.866 407.83,18.009 L407.83,18.027 C407.83,19.278 408.649,19.629 409.918,19.953 C410.971,20.223 411.187,20.403 411.187,20.754 L411.187,20.772 C411.187,21.141 410.845,21.366 410.278,21.366 C409.558,21.366 408.964,21.069 408.397,20.601 L407.578,21.582 C408.334,22.257 409.297,22.59 410.251,22.59 Z M419.467,22.5 C420.889,22.5 421.825,21.924 421.825,20.772 L421.825,20.754 C421.825,19.908 421.375,19.485 420.646,19.206 C421.096,18.954 421.474,18.558 421.474,17.847 L421.474,17.829 C421.474,17.397 421.33,17.046 421.042,16.758 C420.682,16.398 420.115,16.2 419.395,16.2 L416.47,16.2 L416.47,22.5 L419.467,22.5 Z M419.098,18.747 L417.82,18.747 L417.82,17.415 L419.188,17.415 C419.773,17.415 420.097,17.649 420.097,18.063 L420.097,18.081 C420.097,18.549 419.71,18.747 419.098,18.747 Z M419.467,21.285 L417.82,21.285 L417.82,19.899 L419.422,19.899 C420.133,19.899 420.448,20.16 420.448,20.583 L420.448,20.601 C420.448,21.069 420.079,21.285 419.467,21.285 Z M423.841,22.5 L424.417,21.087 L427.081,21.087 L427.657,22.5 L429.106,22.5 L426.406,16.155 L425.128,16.155 L422.428,22.5 L423.841,22.5 Z M426.586,19.863 L424.912,19.863 L425.749,17.82 L426.586,19.863 Z M431.509,22.59 C432.193,22.59 432.76,22.392 433.147,22.005 C433.525,21.627 433.741,21.069 433.741,20.322 L433.741,16.2 L432.319,16.2 L432.319,20.259 C432.319,20.988 431.995,21.303 431.473,21.303 C431.032,21.303 430.681,21.069 430.321,20.673 L429.448,21.645 C429.88,22.158 430.528,22.59 431.509,22.59 Z M438.214,22.608 C440.158,22.608 441.571,21.141 441.571,19.35 L441.571,19.332 C441.571,17.541 440.176,16.092 438.232,16.092 C436.288,16.092 434.875,17.559 434.875,19.35 L434.875,19.368 C434.875,21.159 436.27,22.608 438.214,22.608 Z M438.232,21.33 C437.116,21.33 436.324,20.43 436.324,19.35 L436.324,19.332 C436.324,18.252 437.098,17.37 438.214,17.37 C439.33,17.37 440.122,18.27 440.122,19.35 L440.122,19.368 C440.122,20.448 439.348,21.33 438.232,21.33 Z M450.301,22.5 L450.301,21.267 L446.881,21.267 L446.881,19.944 L449.851,19.944 L449.851,18.711 L446.881,18.711 L446.881,17.433 L450.256,17.433 L450.256,16.2 L445.504,16.2 L445.504,22.5 L450.301,22.5 Z M456.061,22.5 L456.061,21.24 L452.92,21.24 L452.92,16.2 L451.534,16.2 L451.534,22.5 L456.061,22.5 Z M213.142,33 L213.142,30.984 L214.231,30.984 L215.581,33 L217.201,33 L215.662,30.75 C216.463,30.453 217.012,29.814 217.012,28.797 L217.012,28.779 C217.012,28.185 216.823,27.69 216.472,27.339 C216.058,26.925 215.437,26.7 214.636,26.7 L211.756,26.7 L211.756,33 L213.142,33 Z M214.546,29.76 L213.142,29.76 L213.142,27.951 L214.519,27.951 C215.194,27.951 215.608,28.257 215.608,28.851 L215.608,28.869 C215.608,29.4 215.221,29.76 214.546,29.76 Z M223.06,33 L223.06,31.767 L219.64,31.767 L219.64,30.444 L222.61,30.444 L222.61,29.211 L219.64,29.211 L219.64,27.933 L223.015,27.933 L223.015,26.7 L218.263,26.7 L218.263,33 L223.06,33 Z M226.534,33.09 C227.893,33.09 228.847,32.388 228.847,31.137 L228.847,31.119 C228.847,30.021 228.127,29.562 226.849,29.229 C225.76,28.95 225.49,28.815 225.49,28.401 L225.49,28.383 C225.49,28.077 225.769,27.834 226.3,27.834 C226.831,27.834 227.38,28.068 227.938,28.455 L228.658,27.411 C228.019,26.898 227.236,26.61 226.318,26.61 C225.031,26.61 224.113,27.366 224.113,28.509 L224.113,28.527 C224.113,29.778 224.932,30.129 226.201,30.453 C227.254,30.723 227.47,30.903 227.47,31.254 L227.47,31.272 C227.47,31.641 227.128,31.866 226.561,31.866 C225.841,31.866 225.247,31.569 224.68,31.101 L223.861,32.082 C224.617,32.757 225.58,33.09 226.534,33.09 Z M233.086,33.108 C234.238,33.108 235.129,32.658 235.777,32.109 L235.777,29.373 L233.041,29.373 L233.041,30.57 L234.436,30.57 L234.436,31.47 C234.085,31.722 233.635,31.848 233.131,31.848 C232.015,31.848 231.223,31.002 231.223,29.85 L231.223,29.832 C231.223,28.761 232.024,27.87 233.032,27.87 C233.761,27.87 234.193,28.104 234.679,28.509 L235.552,27.456 C234.895,26.898 234.211,26.592 233.077,26.592 C231.169,26.592 229.774,28.059 229.774,29.85 L229.774,29.868 C229.774,31.731 231.124,33.108 233.086,33.108 Z M239.737,33.099 C241.429,33.099 242.5,32.163 242.5,30.255 L242.5,26.7 L241.114,26.7 L241.114,30.309 C241.114,31.308 240.601,31.821 239.755,31.821 C238.909,31.821 238.396,31.29 238.396,30.264 L238.396,26.7 L237.01,26.7 L237.01,30.3 C237.01,32.154 238.045,33.099 239.737,33.099 Z M244.561,33 L245.137,31.587 L247.801,31.587 L248.377,33 L249.826,33 L247.126,26.655 L245.848,26.655 L243.148,33 L244.561,33 Z M247.306,30.363 L245.632,30.363 L246.469,28.32 L247.306,30.363 Z M252.184,33 L252.184,30.984 L253.273,30.984 L254.623,33 L256.243,33 L254.704,30.75 C255.505,30.453 256.054,29.814 256.054,28.797 L256.054,28.779 C256.054,28.185 255.865,27.69 255.514,27.339 C255.1,26.925 254.479,26.7 253.678,26.7 L250.798,26.7 L250.798,33 L252.184,33 Z M253.588,29.76 L252.184,29.76 L252.184,27.951 L253.561,27.951 C254.236,27.951 254.65,28.257 254.65,28.851 L254.65,28.869 C254.65,29.4 254.263,29.76 253.588,29.76 Z M259.762,33 C261.742,33 263.11,31.623 263.11,29.85 L263.11,29.832 C263.11,28.059 261.742,26.7 259.762,26.7 L257.305,26.7 L257.305,33 L259.762,33 Z M259.762,31.749 L258.691,31.749 L258.691,27.951 L259.762,27.951 C260.896,27.951 261.661,28.734 261.661,29.85 L261.661,29.868 C261.661,30.984 260.896,31.749 259.762,31.749 Z M267.403,33.108 C269.347,33.108 270.76,31.641 270.76,29.85 L270.76,29.832 C270.76,28.041 269.365,26.592 267.421,26.592 C265.477,26.592 264.064,28.059 264.064,29.85 L264.064,29.868 C264.064,31.659 265.459,33.108 267.403,33.108 Z M267.421,31.83 C266.305,31.83 265.513,30.93 265.513,29.85 L265.513,29.832 C265.513,28.752 266.287,27.87 267.403,27.87 C268.519,27.87 269.311,28.77 269.311,29.85 L269.311,29.868 C269.311,30.948 268.537,31.83 267.421,31.83 Z M277.15,33 C279.13,33 280.498,31.623 280.498,29.85 L280.498,29.832 C280.498,28.059 279.13,26.7 277.15,26.7 L274.693,26.7 L274.693,33 L277.15,33 Z M277.15,31.749 L276.079,31.749 L276.079,27.951 L277.15,27.951 C278.284,27.951 279.049,28.734 279.049,29.85 L279.049,29.868 C279.049,30.984 278.284,31.749 277.15,31.749 Z M286.528,33 L286.528,31.767 L283.108,31.767 L283.108,30.444 L286.078,30.444 L286.078,29.211 L283.108,29.211 L283.108,27.933 L286.483,27.933 L286.483,26.7 L281.731,26.7 L281.731,33 L286.528,33 Z M292.288,33 L292.288,31.74 L289.147,31.74 L289.147,26.7 L287.761,26.7 L287.761,33 L292.288,33 Z M299.065,33.108 C300.217,33.108 301.108,32.658 301.756,32.109 L301.756,29.373 L299.02,29.373 L299.02,30.57 L300.415,30.57 L300.415,31.47 C300.064,31.722 299.614,31.848 299.11,31.848 C297.994,31.848 297.202,31.002 297.202,29.85 L297.202,29.832 C297.202,28.761 298.003,27.87 299.011,27.87 C299.74,27.87 300.172,28.104 300.658,28.509 L301.531,27.456 C300.874,26.898 300.19,26.592 299.056,26.592 C297.148,26.592 295.753,28.059 295.753,29.85 L295.753,29.868 C295.753,31.731 297.103,33.108 299.065,33.108 Z M306.148,33.108 C308.092,33.108 309.505,31.641 309.505,29.85 L309.505,29.832 C309.505,28.041 308.11,26.592 306.166,26.592 C304.222,26.592 302.809,28.059 302.809,29.85 L302.809,29.868 C302.809,31.659 304.204,33.108 306.148,33.108 Z M306.166,31.83 C305.05,31.83 304.258,30.93 304.258,29.85 L304.258,29.832 C304.258,28.752 305.032,27.87 306.148,27.87 C307.264,27.87 308.056,28.77 308.056,29.85 L308.056,29.868 C308.056,30.948 307.282,31.83 306.166,31.83 Z M313.735,33 C315.157,33 316.093,32.424 316.093,31.272 L316.093,31.254 C316.093,30.408 315.643,29.985 314.914,29.706 C315.364,29.454 315.742,29.058 315.742,28.347 L315.742,28.329 C315.742,27.897 315.598,27.546 315.31,27.258 C314.95,26.898 314.383,26.7 313.663,26.7 L310.738,26.7 L310.738,33 L313.735,33 Z M313.366,29.247 L312.088,29.247 L312.088,27.915 L313.456,27.915 C314.041,27.915 314.365,28.149 314.365,28.563 L314.365,28.581 C314.365,29.049 313.978,29.247 313.366,29.247 Z M313.735,31.785 L312.088,31.785 L312.088,30.399 L313.69,30.399 C314.401,30.399 314.716,30.66 314.716,31.083 L314.716,31.101 C314.716,31.569 314.347,31.785 313.735,31.785 Z M318.685,33 L318.685,26.7 L317.299,26.7 L317.299,33 L318.685,33 Z M325.057,33 L325.057,31.767 L321.637,31.767 L321.637,30.444 L324.607,30.444 L324.607,29.211 L321.637,29.211 L321.637,27.933 L325.012,27.933 L325.012,26.7 L320.26,26.7 L320.26,33 L325.057,33 Z M327.676,33 L327.676,30.984 L328.765,30.984 L330.115,33 L331.735,33 L330.196,30.75 C330.997,30.453 331.546,29.814 331.546,28.797 L331.546,28.779 C331.546,28.185 331.357,27.69 331.006,27.339 C330.592,26.925 329.971,26.7 329.17,26.7 L326.29,26.7 L326.29,33 L327.676,33 Z M329.08,29.76 L327.676,29.76 L327.676,27.951 L329.053,27.951 C329.728,27.951 330.142,28.257 330.142,28.851 L330.142,28.869 C330.142,29.4 329.755,29.76 329.08,29.76 Z M334.165,33 L334.165,28.995 L337.216,33 L338.395,33 L338.395,26.7 L337.027,26.7 L337.027,30.579 L334.075,26.7 L332.797,26.7 L332.797,33 L334.165,33 Z M342.967,33.108 C344.911,33.108 346.324,31.641 346.324,29.85 L346.324,29.832 C346.324,28.041 344.929,26.592 342.985,26.592 C341.041,26.592 339.628,28.059 339.628,29.85 L339.628,29.868 C339.628,31.659 341.023,33.108 342.967,33.108 Z M342.985,31.83 C341.869,31.83 341.077,30.93 341.077,29.85 L341.077,29.832 C341.077,28.752 341.851,27.87 342.967,27.87 C344.083,27.87 344.875,28.77 344.875,29.85 L344.875,29.868 C344.875,30.948 344.101,31.83 342.985,31.83 Z M352.714,33 C354.694,33 356.062,31.623 356.062,29.85 L356.062,29.832 C356.062,28.059 354.694,26.7 352.714,26.7 L350.257,26.7 L350.257,33 L352.714,33 Z M352.714,31.749 L351.643,31.749 L351.643,27.951 L352.714,27.951 C353.848,27.951 354.613,28.734 354.613,29.85 L354.613,29.868 C354.613,30.984 353.848,31.749 352.714,31.749 Z M362.092,33 L362.092,31.767 L358.672,31.767 L358.672,30.444 L361.642,30.444 L361.642,29.211 L358.672,29.211 L358.672,27.933 L362.047,27.933 L362.047,26.7 L357.295,26.7 L357.295,33 L362.092,33 Z M370.552,33 L370.552,31.74 L367.411,31.74 L367.411,26.7 L366.025,26.7 L366.025,33 L370.552,33 Z M372.469,33 L373.045,31.587 L375.709,31.587 L376.285,33 L377.734,33 L375.034,26.655 L373.756,26.655 L371.056,33 L372.469,33 Z M375.214,30.363 L373.54,30.363 L374.377,28.32 L375.214,30.363 Z M384.358,33.108 C385.573,33.108 386.293,32.676 386.941,31.983 L386.059,31.092 C385.564,31.542 385.123,31.83 384.403,31.83 C383.323,31.83 382.576,30.93 382.576,29.85 L382.576,29.832 C382.576,28.752 383.341,27.87 384.403,27.87 C385.033,27.87 385.528,28.14 386.014,28.581 L386.896,27.564 C386.311,26.988 385.6,26.592 384.412,26.592 C382.477,26.592 381.127,28.059 381.127,29.85 L381.127,29.868 C381.127,31.677 382.504,33.108 384.358,33.108 Z M389.497,33 L389.497,26.7 L388.111,26.7 L388.111,33 L389.497,33 Z M393.7,33.099 C395.392,33.099 396.463,32.163 396.463,30.255 L396.463,26.7 L395.077,26.7 L395.077,30.309 C395.077,31.308 394.564,31.821 393.718,31.821 C392.872,31.821 392.359,31.29 392.359,30.264 L392.359,26.7 L390.973,26.7 L390.973,30.3 C390.973,32.154 392.008,33.099 393.7,33.099 Z M400.333,33 C402.313,33 403.681,31.623 403.681,29.85 L403.681,29.832 C403.681,28.059 402.313,26.7 400.333,26.7 L397.876,26.7 L397.876,33 L400.333,33 Z M400.333,31.749 L399.262,31.749 L399.262,27.951 L400.333,27.951 C401.467,27.951 402.232,28.734 402.232,29.85 L402.232,29.868 C402.232,30.984 401.467,31.749 400.333,31.749 Z M405.337,33 L405.913,31.587 L408.577,31.587 L409.153,33 L410.602,33 L407.902,26.655 L406.624,26.655 L403.924,33 L405.337,33 Z M408.082,30.363 L406.408,30.363 L407.245,28.32 L408.082,30.363 Z M414.031,33 C416.011,33 417.379,31.623 417.379,29.85 L417.379,29.832 C417.379,28.059 416.011,26.7 414.031,26.7 L411.574,26.7 L411.574,33 L414.031,33 Z M414.031,31.749 L412.96,31.749 L412.96,27.951 L414.031,27.951 C415.165,27.951 415.93,28.734 415.93,29.85 L415.93,29.868 C415.93,30.984 415.165,31.749 414.031,31.749 Z M423.769,33 C425.749,33 427.117,31.623 427.117,29.85 L427.117,29.832 C427.117,28.059 425.749,26.7 423.769,26.7 L421.312,26.7 L421.312,33 L423.769,33 Z M423.769,31.749 L422.698,31.749 L422.698,27.951 L423.769,27.951 C424.903,27.951 425.668,28.734 425.668,29.85 L425.668,29.868 C425.668,30.984 424.903,31.749 423.769,31.749 Z M433.147,33 L433.147,31.767 L429.727,31.767 L429.727,30.444 L432.697,30.444 L432.697,29.211 L429.727,29.211 L429.727,27.933 L433.102,27.933 L433.102,26.7 L428.35,26.7 L428.35,33 L433.147,33 Z M438.439,33 L438.439,28.914 L440.194,31.578 L440.23,31.578 L442.003,28.887 L442.003,33 L443.38,33 L443.38,26.7 L441.886,26.7 L440.23,29.364 L438.574,26.7 L437.08,26.7 L437.08,33 L438.439,33 Z M447.772,26.205 L448.996,25.305 L447.817,24.792 L446.728,26.205 L447.772,26.205 Z M449.689,33 L449.689,31.767 L446.269,31.767 L446.269,30.444 L449.239,30.444 L449.239,29.211 L446.269,29.211 L446.269,27.933 L449.644,27.933 L449.644,26.7 L444.892,26.7 L444.892,33 L449.689,33 Z M452.02,33 L453.442,30.84 L454.855,33 L456.475,33 L454.279,29.778 L456.385,26.7 L454.81,26.7 L453.469,28.743 L452.155,26.7 L450.535,26.7 L452.641,29.796 L450.445,33 L452.02,33 Z M458.959,33 L458.959,26.7 L457.573,26.7 L457.573,33 L458.959,33 Z M463.486,33.108 C464.701,33.108 465.421,32.676 466.069,31.983 L465.187,31.092 C464.692,31.542 464.251,31.83 463.531,31.83 C462.451,31.83 461.704,30.93 461.704,29.85 L461.704,29.832 C461.704,28.752 462.469,27.87 463.531,27.87 C464.161,27.87 464.656,28.14 465.142,28.581 L466.024,27.564 C465.439,26.988 464.728,26.592 463.54,26.592 C461.605,26.592 460.255,28.059 460.255,29.85 L460.255,29.868 C460.255,31.677 461.632,33.108 463.486,33.108 Z M470.056,33.108 C472,33.108 473.413,31.641 473.413,29.85 L473.413,29.832 C473.413,28.041 472.018,26.592 470.074,26.592 C468.13,26.592 466.717,28.059 466.717,29.85 L466.717,29.868 C466.717,31.659 468.112,33.108 470.056,33.108 Z M470.074,31.83 C468.958,31.83 468.166,30.93 468.166,29.85 L468.166,29.832 C468.166,28.752 468.94,27.87 470.056,27.87 C471.172,27.87 471.964,28.77 471.964,29.85 L471.964,29.868 C471.964,30.948 471.19,31.83 470.074,31.83 Z" id="PLATAFORMADEREGISTRODEPERSONASBAJOELRESGUARDODELGOBIERNODELACIUDADDEMXICO" fill="#898D8D" fill-rule="nonzero"></path>
        </g>
    </g>
</svg>